<?xml version="1.0" encoding="utf-8" standalone="no"?>
<!DOCTYPE svg PUBLIC "-//W3C//DTD SVG 1.1//EN"
  "http://www.w3.org/Graphics/SVG/1.1/DTD/svg11.dtd">
<svg xmlns:xlink="http://www.w3.org/1999/xlink" width="720pt" height="432pt" viewBox="0 0 720 432" xmlns="http://www.w3.org/2000/svg" version="1.1">
 <metadata>
  <rdf:RDF xmlns:dc="http://purl.org/dc/elements/1.1/" xmlns:cc="http://creativecommons.org/ns#" xmlns:rdf="http://www.w3.org/1999/02/22-rdf-syntax-ns#">
   <cc:Work>
    <dc:type rdf:resource="http://purl.org/dc/dcmitype/StillImage"/>
    <dc:date>2025-07-19T10:57:25.437738</dc:date>
    <dc:format>image/svg+xml</dc:format>
    <dc:creator>
     <cc:Agent>
      <dc:title>Matplotlib v3.8.3, https://matplotlib.org/</dc:title>
     </cc:Agent>
    </dc:creator>
   </cc:Work>
  </rdf:RDF>
 </metadata>
 <defs>
  <style type="text/css">*{stroke-linejoin: round; stroke-linecap: butt}</style>
 </defs>
 <g id="figure_1">
  <g id="patch_1">
   <path d="M 0 432 
L 720 432 
L 720 0 
L 0 0 
z
" style="fill: #ffffff"/>
  </g>
  <g id="axes_1">
   <g id="patch_2">
    <path d="M 90 384.48 
L 648 384.48 
L 648 51.84 
L 90 51.84 
z
" style="fill: #ffffff"/>
   </g>
   <g id="matplotlib.axis_1">
    <g id="xtick_1">
     <g id="line2d_1">
      <path d="M 115.363636 384.48 
L 115.363636 51.84 
" clip-path="url(#pc08a6396e4)" style="fill: none; stroke-dasharray: 2.96,1.28; stroke-dashoffset: 0; stroke: #cccccc; stroke-opacity: 0.5; stroke-width: 0.8"/>
     </g>
     <g id="line2d_2"/>
     <g id="text_1">
      <!-- 00:00 -->
      <g style="fill: #262626" transform="translate(102.730179 428.938055) rotate(-45) scale(0.18 -0.18)">
       <defs>
        <path id="ArialMT-30" d="M 266 2259 
Q 266 3072 433 3567 
Q 600 4063 929 4331 
Q 1259 4600 1759 4600 
Q 2128 4600 2406 4451 
Q 2684 4303 2865 4023 
Q 3047 3744 3150 3342 
Q 3253 2941 3253 2259 
Q 3253 1453 3087 958 
Q 2922 463 2592 192 
Q 2263 -78 1759 -78 
Q 1097 -78 719 397 
Q 266 969 266 2259 
z
M 844 2259 
Q 844 1131 1108 757 
Q 1372 384 1759 384 
Q 2147 384 2411 759 
Q 2675 1134 2675 2259 
Q 2675 3391 2411 3762 
Q 2147 4134 1753 4134 
Q 1366 4134 1134 3806 
Q 844 3388 844 2259 
z
" transform="scale(0.015625)"/>
        <path id="ArialMT-3a" d="M 578 2678 
L 578 3319 
L 1219 3319 
L 1219 2678 
L 578 2678 
z
M 578 0 
L 578 641 
L 1219 641 
L 1219 0 
L 578 0 
z
" transform="scale(0.015625)"/>
       </defs>
       <use xlink:href="#ArialMT-30"/>
       <use xlink:href="#ArialMT-30" x="55.615234"/>
       <use xlink:href="#ArialMT-3a" x="111.230469"/>
       <use xlink:href="#ArialMT-30" x="139.013672"/>
       <use xlink:href="#ArialMT-30" x="194.628906"/>
      </g>
     </g>
    </g>
    <g id="xtick_2">
     <g id="line2d_3">
      <path d="M 159.474308 384.48 
L 159.474308 51.84 
" clip-path="url(#pc08a6396e4)" style="fill: none; stroke-dasharray: 2.96,1.28; stroke-dashoffset: 0; stroke: #cccccc; stroke-opacity: 0.5; stroke-width: 0.8"/>
     </g>
     <g id="line2d_4"/>
     <g id="text_2">
      <!-- 02:00 -->
      <g style="fill: #262626" transform="translate(146.840851 428.938055) rotate(-45) scale(0.18 -0.18)">
       <defs>
        <path id="ArialMT-32" d="M 3222 541 
L 3222 0 
L 194 0 
Q 188 203 259 391 
Q 375 700 629 1000 
Q 884 1300 1366 1694 
Q 2113 2306 2375 2664 
Q 2638 3022 2638 3341 
Q 2638 3675 2398 3904 
Q 2159 4134 1775 4134 
Q 1369 4134 1125 3890 
Q 881 3647 878 3216 
L 300 3275 
Q 359 3922 746 4261 
Q 1134 4600 1788 4600 
Q 2447 4600 2831 4234 
Q 3216 3869 3216 3328 
Q 3216 3053 3103 2787 
Q 2991 2522 2730 2228 
Q 2469 1934 1863 1422 
Q 1356 997 1212 845 
Q 1069 694 975 541 
L 3222 541 
z
" transform="scale(0.015625)"/>
       </defs>
       <use xlink:href="#ArialMT-30"/>
       <use xlink:href="#ArialMT-32" x="55.615234"/>
       <use xlink:href="#ArialMT-3a" x="111.230469"/>
       <use xlink:href="#ArialMT-30" x="139.013672"/>
       <use xlink:href="#ArialMT-30" x="194.628906"/>
      </g>
     </g>
    </g>
    <g id="xtick_3">
     <g id="line2d_5">
      <path d="M 203.58498 384.48 
L 203.58498 51.84 
" clip-path="url(#pc08a6396e4)" style="fill: none; stroke-dasharray: 2.96,1.28; stroke-dashoffset: 0; stroke: #cccccc; stroke-opacity: 0.5; stroke-width: 0.8"/>
     </g>
     <g id="line2d_6"/>
     <g id="text_3">
      <!-- 04:00 -->
      <g style="fill: #262626" transform="translate(190.951523 428.938055) rotate(-45) scale(0.18 -0.18)">
       <defs>
        <path id="ArialMT-34" d="M 2069 0 
L 2069 1097 
L 81 1097 
L 81 1613 
L 2172 4581 
L 2631 4581 
L 2631 1613 
L 3250 1613 
L 3250 1097 
L 2631 1097 
L 2631 0 
L 2069 0 
z
M 2069 1613 
L 2069 3678 
L 634 1613 
L 2069 1613 
z
" transform="scale(0.015625)"/>
       </defs>
       <use xlink:href="#ArialMT-30"/>
       <use xlink:href="#ArialMT-34" x="55.615234"/>
       <use xlink:href="#ArialMT-3a" x="111.230469"/>
       <use xlink:href="#ArialMT-30" x="139.013672"/>
       <use xlink:href="#ArialMT-30" x="194.628906"/>
      </g>
     </g>
    </g>
    <g id="xtick_4">
     <g id="line2d_7">
      <path d="M 247.695652 384.48 
L 247.695652 51.84 
" clip-path="url(#pc08a6396e4)" style="fill: none; stroke-dasharray: 2.96,1.28; stroke-dashoffset: 0; stroke: #cccccc; stroke-opacity: 0.5; stroke-width: 0.8"/>
     </g>
     <g id="line2d_8"/>
     <g id="text_4">
      <!-- 06:00 -->
      <g style="fill: #262626" transform="translate(235.062195 428.938055) rotate(-45) scale(0.18 -0.18)">
       <defs>
        <path id="ArialMT-36" d="M 3184 3459 
L 2625 3416 
Q 2550 3747 2413 3897 
Q 2184 4138 1850 4138 
Q 1581 4138 1378 3988 
Q 1113 3794 959 3422 
Q 806 3050 800 2363 
Q 1003 2672 1297 2822 
Q 1591 2972 1913 2972 
Q 2475 2972 2870 2558 
Q 3266 2144 3266 1488 
Q 3266 1056 3080 686 
Q 2894 316 2569 119 
Q 2244 -78 1831 -78 
Q 1128 -78 684 439 
Q 241 956 241 2144 
Q 241 3472 731 4075 
Q 1159 4600 1884 4600 
Q 2425 4600 2770 4297 
Q 3116 3994 3184 3459 
z
M 888 1484 
Q 888 1194 1011 928 
Q 1134 663 1356 523 
Q 1578 384 1822 384 
Q 2178 384 2434 671 
Q 2691 959 2691 1453 
Q 2691 1928 2437 2201 
Q 2184 2475 1800 2475 
Q 1419 2475 1153 2201 
Q 888 1928 888 1484 
z
" transform="scale(0.015625)"/>
       </defs>
       <use xlink:href="#ArialMT-30"/>
       <use xlink:href="#ArialMT-36" x="55.615234"/>
       <use xlink:href="#ArialMT-3a" x="111.230469"/>
       <use xlink:href="#ArialMT-30" x="139.013672"/>
       <use xlink:href="#ArialMT-30" x="194.628906"/>
      </g>
     </g>
    </g>
    <g id="xtick_5">
     <g id="line2d_9">
      <path d="M 291.806324 384.48 
L 291.806324 51.84 
" clip-path="url(#pc08a6396e4)" style="fill: none; stroke-dasharray: 2.96,1.28; stroke-dashoffset: 0; stroke: #cccccc; stroke-opacity: 0.5; stroke-width: 0.8"/>
     </g>
     <g id="line2d_10"/>
     <g id="text_5">
      <!-- 08:00 -->
      <g style="fill: #262626" transform="translate(279.172867 428.938055) rotate(-45) scale(0.18 -0.18)">
       <defs>
        <path id="ArialMT-38" d="M 1131 2484 
Q 781 2613 612 2850 
Q 444 3088 444 3419 
Q 444 3919 803 4259 
Q 1163 4600 1759 4600 
Q 2359 4600 2725 4251 
Q 3091 3903 3091 3403 
Q 3091 3084 2923 2848 
Q 2756 2613 2416 2484 
Q 2838 2347 3058 2040 
Q 3278 1734 3278 1309 
Q 3278 722 2862 322 
Q 2447 -78 1769 -78 
Q 1091 -78 675 323 
Q 259 725 259 1325 
Q 259 1772 486 2073 
Q 713 2375 1131 2484 
z
M 1019 3438 
Q 1019 3113 1228 2906 
Q 1438 2700 1772 2700 
Q 2097 2700 2305 2904 
Q 2513 3109 2513 3406 
Q 2513 3716 2298 3927 
Q 2084 4138 1766 4138 
Q 1444 4138 1231 3931 
Q 1019 3725 1019 3438 
z
M 838 1322 
Q 838 1081 952 856 
Q 1066 631 1291 507 
Q 1516 384 1775 384 
Q 2178 384 2440 643 
Q 2703 903 2703 1303 
Q 2703 1709 2433 1975 
Q 2163 2241 1756 2241 
Q 1359 2241 1098 1978 
Q 838 1716 838 1322 
z
" transform="scale(0.015625)"/>
       </defs>
       <use xlink:href="#ArialMT-30"/>
       <use xlink:href="#ArialMT-38" x="55.615234"/>
       <use xlink:href="#ArialMT-3a" x="111.230469"/>
       <use xlink:href="#ArialMT-30" x="139.013672"/>
       <use xlink:href="#ArialMT-30" x="194.628906"/>
      </g>
     </g>
    </g>
    <g id="xtick_6">
     <g id="line2d_11">
      <path d="M 335.916996 384.48 
L 335.916996 51.84 
" clip-path="url(#pc08a6396e4)" style="fill: none; stroke-dasharray: 2.96,1.28; stroke-dashoffset: 0; stroke: #cccccc; stroke-opacity: 0.5; stroke-width: 0.8"/>
     </g>
     <g id="line2d_12"/>
     <g id="text_6">
      <!-- 10:00 -->
      <g style="fill: #262626" transform="translate(323.283539 428.938055) rotate(-45) scale(0.18 -0.18)">
       <defs>
        <path id="ArialMT-31" d="M 2384 0 
L 1822 0 
L 1822 3584 
Q 1619 3391 1289 3197 
Q 959 3003 697 2906 
L 697 3450 
Q 1169 3672 1522 3987 
Q 1875 4303 2022 4600 
L 2384 4600 
L 2384 0 
z
" transform="scale(0.015625)"/>
       </defs>
       <use xlink:href="#ArialMT-31"/>
       <use xlink:href="#ArialMT-30" x="55.615234"/>
       <use xlink:href="#ArialMT-3a" x="111.230469"/>
       <use xlink:href="#ArialMT-30" x="139.013672"/>
       <use xlink:href="#ArialMT-30" x="194.628906"/>
      </g>
     </g>
    </g>
    <g id="xtick_7">
     <g id="line2d_13">
      <path d="M 380.027668 384.48 
L 380.027668 51.84 
" clip-path="url(#pc08a6396e4)" style="fill: none; stroke-dasharray: 2.96,1.28; stroke-dashoffset: 0; stroke: #cccccc; stroke-opacity: 0.5; stroke-width: 0.8"/>
     </g>
     <g id="line2d_14"/>
     <g id="text_7">
      <!-- 12:00 -->
      <g style="fill: #262626" transform="translate(367.394211 428.938055) rotate(-45) scale(0.18 -0.18)">
       <use xlink:href="#ArialMT-31"/>
       <use xlink:href="#ArialMT-32" x="55.615234"/>
       <use xlink:href="#ArialMT-3a" x="111.230469"/>
       <use xlink:href="#ArialMT-30" x="139.013672"/>
       <use xlink:href="#ArialMT-30" x="194.628906"/>
      </g>
     </g>
    </g>
    <g id="xtick_8">
     <g id="line2d_15">
      <path d="M 424.13834 384.48 
L 424.13834 51.84 
" clip-path="url(#pc08a6396e4)" style="fill: none; stroke-dasharray: 2.96,1.28; stroke-dashoffset: 0; stroke: #cccccc; stroke-opacity: 0.5; stroke-width: 0.8"/>
     </g>
     <g id="line2d_16"/>
     <g id="text_8">
      <!-- 14:00 -->
      <g style="fill: #262626" transform="translate(411.504883 428.938055) rotate(-45) scale(0.18 -0.18)">
       <use xlink:href="#ArialMT-31"/>
       <use xlink:href="#ArialMT-34" x="55.615234"/>
       <use xlink:href="#ArialMT-3a" x="111.230469"/>
       <use xlink:href="#ArialMT-30" x="139.013672"/>
       <use xlink:href="#ArialMT-30" x="194.628906"/>
      </g>
     </g>
    </g>
    <g id="xtick_9">
     <g id="line2d_17">
      <path d="M 468.249012 384.48 
L 468.249012 51.84 
" clip-path="url(#pc08a6396e4)" style="fill: none; stroke-dasharray: 2.96,1.28; stroke-dashoffset: 0; stroke: #cccccc; stroke-opacity: 0.5; stroke-width: 0.8"/>
     </g>
     <g id="line2d_18"/>
     <g id="text_9">
      <!-- 16:00 -->
      <g style="fill: #262626" transform="translate(455.615555 428.938055) rotate(-45) scale(0.18 -0.18)">
       <use xlink:href="#ArialMT-31"/>
       <use xlink:href="#ArialMT-36" x="55.615234"/>
       <use xlink:href="#ArialMT-3a" x="111.230469"/>
       <use xlink:href="#ArialMT-30" x="139.013672"/>
       <use xlink:href="#ArialMT-30" x="194.628906"/>
      </g>
     </g>
    </g>
    <g id="xtick_10">
     <g id="line2d_19">
      <path d="M 512.359684 384.48 
L 512.359684 51.84 
" clip-path="url(#pc08a6396e4)" style="fill: none; stroke-dasharray: 2.96,1.28; stroke-dashoffset: 0; stroke: #cccccc; stroke-opacity: 0.5; stroke-width: 0.8"/>
     </g>
     <g id="line2d_20"/>
     <g id="text_10">
      <!-- 18:00 -->
      <g style="fill: #262626" transform="translate(499.726227 428.938055) rotate(-45) scale(0.18 -0.18)">
       <use xlink:href="#ArialMT-31"/>
       <use xlink:href="#ArialMT-38" x="55.615234"/>
       <use xlink:href="#ArialMT-3a" x="111.230469"/>
       <use xlink:href="#ArialMT-30" x="139.013672"/>
       <use xlink:href="#ArialMT-30" x="194.628906"/>
      </g>
     </g>
    </g>
    <g id="xtick_11">
     <g id="line2d_21">
      <path d="M 556.470356 384.48 
L 556.470356 51.84 
" clip-path="url(#pc08a6396e4)" style="fill: none; stroke-dasharray: 2.96,1.28; stroke-dashoffset: 0; stroke: #cccccc; stroke-opacity: 0.5; stroke-width: 0.8"/>
     </g>
     <g id="line2d_22"/>
     <g id="text_11">
      <!-- 20:00 -->
      <g style="fill: #262626" transform="translate(543.836899 428.938055) rotate(-45) scale(0.18 -0.18)">
       <use xlink:href="#ArialMT-32"/>
       <use xlink:href="#ArialMT-30" x="55.615234"/>
       <use xlink:href="#ArialMT-3a" x="111.230469"/>
       <use xlink:href="#ArialMT-30" x="139.013672"/>
       <use xlink:href="#ArialMT-30" x="194.628906"/>
      </g>
     </g>
    </g>
    <g id="xtick_12">
     <g id="line2d_23">
      <path d="M 600.581028 384.48 
L 600.581028 51.84 
" clip-path="url(#pc08a6396e4)" style="fill: none; stroke-dasharray: 2.96,1.28; stroke-dashoffset: 0; stroke: #cccccc; stroke-opacity: 0.5; stroke-width: 0.8"/>
     </g>
     <g id="line2d_24"/>
     <g id="text_12">
      <!-- 22:00 -->
      <g style="fill: #262626" transform="translate(587.947571 428.938055) rotate(-45) scale(0.18 -0.18)">
       <use xlink:href="#ArialMT-32"/>
       <use xlink:href="#ArialMT-32" x="55.615234"/>
       <use xlink:href="#ArialMT-3a" x="111.230469"/>
       <use xlink:href="#ArialMT-30" x="139.013672"/>
       <use xlink:href="#ArialMT-30" x="194.628906"/>
      </g>
     </g>
    </g>
    <g id="text_13">
     <!-- Hour of Day -->
     <g style="fill: #262626" transform="translate(304.978125 452.93898) scale(0.24 -0.24)">
      <defs>
       <path id="ArialMT-48" d="M 513 0 
L 513 4581 
L 1119 4581 
L 1119 2700 
L 3500 2700 
L 3500 4581 
L 4106 4581 
L 4106 0 
L 3500 0 
L 3500 2159 
L 1119 2159 
L 1119 0 
L 513 0 
z
" transform="scale(0.015625)"/>
       <path id="ArialMT-6f" d="M 213 1659 
Q 213 2581 725 3025 
Q 1153 3394 1769 3394 
Q 2453 3394 2887 2945 
Q 3322 2497 3322 1706 
Q 3322 1066 3130 698 
Q 2938 331 2570 128 
Q 2203 -75 1769 -75 
Q 1072 -75 642 372 
Q 213 819 213 1659 
z
M 791 1659 
Q 791 1022 1069 705 
Q 1347 388 1769 388 
Q 2188 388 2466 706 
Q 2744 1025 2744 1678 
Q 2744 2294 2464 2611 
Q 2184 2928 1769 2928 
Q 1347 2928 1069 2612 
Q 791 2297 791 1659 
z
" transform="scale(0.015625)"/>
       <path id="ArialMT-75" d="M 2597 0 
L 2597 488 
Q 2209 -75 1544 -75 
Q 1250 -75 995 37 
Q 741 150 617 320 
Q 494 491 444 738 
Q 409 903 409 1263 
L 409 3319 
L 972 3319 
L 972 1478 
Q 972 1038 1006 884 
Q 1059 663 1231 536 
Q 1403 409 1656 409 
Q 1909 409 2131 539 
Q 2353 669 2445 892 
Q 2538 1116 2538 1541 
L 2538 3319 
L 3100 3319 
L 3100 0 
L 2597 0 
z
" transform="scale(0.015625)"/>
       <path id="ArialMT-72" d="M 416 0 
L 416 3319 
L 922 3319 
L 922 2816 
Q 1116 3169 1280 3281 
Q 1444 3394 1641 3394 
Q 1925 3394 2219 3213 
L 2025 2691 
Q 1819 2813 1613 2813 
Q 1428 2813 1281 2702 
Q 1134 2591 1072 2394 
Q 978 2094 978 1738 
L 978 0 
L 416 0 
z
" transform="scale(0.015625)"/>
       <path id="ArialMT-20" transform="scale(0.015625)"/>
       <path id="ArialMT-66" d="M 556 0 
L 556 2881 
L 59 2881 
L 59 3319 
L 556 3319 
L 556 3672 
Q 556 4006 616 4169 
Q 697 4388 901 4523 
Q 1106 4659 1475 4659 
Q 1713 4659 2000 4603 
L 1916 4113 
Q 1741 4144 1584 4144 
Q 1328 4144 1222 4034 
Q 1116 3925 1116 3625 
L 1116 3319 
L 1763 3319 
L 1763 2881 
L 1116 2881 
L 1116 0 
L 556 0 
z
" transform="scale(0.015625)"/>
       <path id="ArialMT-44" d="M 494 0 
L 494 4581 
L 2072 4581 
Q 2606 4581 2888 4516 
Q 3281 4425 3559 4188 
Q 3922 3881 4101 3404 
Q 4281 2928 4281 2316 
Q 4281 1794 4159 1391 
Q 4038 988 3847 723 
Q 3656 459 3429 307 
Q 3203 156 2883 78 
Q 2563 0 2147 0 
L 494 0 
z
M 1100 541 
L 2078 541 
Q 2531 541 2789 625 
Q 3047 709 3200 863 
Q 3416 1078 3536 1442 
Q 3656 1806 3656 2325 
Q 3656 3044 3420 3430 
Q 3184 3816 2847 3947 
Q 2603 4041 2063 4041 
L 1100 4041 
L 1100 541 
z
" transform="scale(0.015625)"/>
       <path id="ArialMT-61" d="M 2588 409 
Q 2275 144 1986 34 
Q 1697 -75 1366 -75 
Q 819 -75 525 192 
Q 231 459 231 875 
Q 231 1119 342 1320 
Q 453 1522 633 1644 
Q 813 1766 1038 1828 
Q 1203 1872 1538 1913 
Q 2219 1994 2541 2106 
Q 2544 2222 2544 2253 
Q 2544 2597 2384 2738 
Q 2169 2928 1744 2928 
Q 1347 2928 1158 2789 
Q 969 2650 878 2297 
L 328 2372 
Q 403 2725 575 2942 
Q 747 3159 1072 3276 
Q 1397 3394 1825 3394 
Q 2250 3394 2515 3294 
Q 2781 3194 2906 3042 
Q 3031 2891 3081 2659 
Q 3109 2516 3109 2141 
L 3109 1391 
Q 3109 606 3145 398 
Q 3181 191 3288 0 
L 2700 0 
Q 2613 175 2588 409 
z
M 2541 1666 
Q 2234 1541 1622 1453 
Q 1275 1403 1131 1340 
Q 988 1278 909 1158 
Q 831 1038 831 891 
Q 831 666 1001 516 
Q 1172 366 1500 366 
Q 1825 366 2078 508 
Q 2331 650 2450 897 
Q 2541 1088 2541 1459 
L 2541 1666 
z
" transform="scale(0.015625)"/>
       <path id="ArialMT-79" d="M 397 -1278 
L 334 -750 
Q 519 -800 656 -800 
Q 844 -800 956 -737 
Q 1069 -675 1141 -563 
Q 1194 -478 1313 -144 
Q 1328 -97 1363 -6 
L 103 3319 
L 709 3319 
L 1400 1397 
Q 1534 1031 1641 628 
Q 1738 1016 1872 1384 
L 2581 3319 
L 3144 3319 
L 1881 -56 
Q 1678 -603 1566 -809 
Q 1416 -1088 1222 -1217 
Q 1028 -1347 759 -1347 
Q 597 -1347 397 -1278 
z
" transform="scale(0.015625)"/>
      </defs>
      <use xlink:href="#ArialMT-48"/>
      <use xlink:href="#ArialMT-6f" x="72.216797"/>
      <use xlink:href="#ArialMT-75" x="127.832031"/>
      <use xlink:href="#ArialMT-72" x="183.447266"/>
      <use xlink:href="#ArialMT-20" x="216.748047"/>
      <use xlink:href="#ArialMT-6f" x="244.53125"/>
      <use xlink:href="#ArialMT-66" x="300.146484"/>
      <use xlink:href="#ArialMT-20" x="327.929688"/>
      <use xlink:href="#ArialMT-44" x="355.712891"/>
      <use xlink:href="#ArialMT-61" x="427.929688"/>
      <use xlink:href="#ArialMT-79" x="483.544922"/>
     </g>
    </g>
   </g>
   <g id="matplotlib.axis_2">
    <g id="ytick_1">
     <g id="line2d_25">
      <path d="M 90 384.48 
L 648 384.48 
" clip-path="url(#pc08a6396e4)" style="fill: none; stroke-dasharray: 2.96,1.28; stroke-dashoffset: 0; stroke: #cccccc; stroke-opacity: 0.5; stroke-width: 0.8"/>
     </g>
     <g id="line2d_26"/>
     <g id="text_14">
      <!-- −20 -->
      <g style="fill: #262626" transform="translate(55.9675 390.922031) scale(0.18 -0.18)">
       <defs>
        <path id="ArialMT-2212" d="M 3381 1997 
L 356 1997 
L 356 2522 
L 3381 2522 
L 3381 1997 
z
" transform="scale(0.015625)"/>
       </defs>
       <use xlink:href="#ArialMT-2212"/>
       <use xlink:href="#ArialMT-32" x="58.398438"/>
       <use xlink:href="#ArialMT-30" x="114.013672"/>
      </g>
     </g>
    </g>
    <g id="ytick_2">
     <g id="line2d_27">
      <path d="M 90 345.345882 
L 648 345.345882 
" clip-path="url(#pc08a6396e4)" style="fill: none; stroke-dasharray: 2.96,1.28; stroke-dashoffset: 0; stroke: #cccccc; stroke-opacity: 0.5; stroke-width: 0.8"/>
     </g>
     <g id="line2d_28"/>
     <g id="text_15">
      <!-- 0 -->
      <g style="fill: #262626" transform="translate(76.490313 351.787914) scale(0.18 -0.18)">
       <use xlink:href="#ArialMT-30"/>
      </g>
     </g>
    </g>
    <g id="ytick_3">
     <g id="line2d_29">
      <path d="M 90 306.211765 
L 648 306.211765 
" clip-path="url(#pc08a6396e4)" style="fill: none; stroke-dasharray: 2.96,1.28; stroke-dashoffset: 0; stroke: #cccccc; stroke-opacity: 0.5; stroke-width: 0.8"/>
     </g>
     <g id="line2d_30"/>
     <g id="text_16">
      <!-- 20 -->
      <g style="fill: #262626" transform="translate(66.480625 312.653796) scale(0.18 -0.18)">
       <use xlink:href="#ArialMT-32"/>
       <use xlink:href="#ArialMT-30" x="55.615234"/>
      </g>
     </g>
    </g>
    <g id="ytick_4">
     <g id="line2d_31">
      <path d="M 90 267.077647 
L 648 267.077647 
" clip-path="url(#pc08a6396e4)" style="fill: none; stroke-dasharray: 2.96,1.28; stroke-dashoffset: 0; stroke: #cccccc; stroke-opacity: 0.5; stroke-width: 0.8"/>
     </g>
     <g id="line2d_32"/>
     <g id="text_17">
      <!-- 40 -->
      <g style="fill: #262626" transform="translate(66.480625 273.519678) scale(0.18 -0.18)">
       <use xlink:href="#ArialMT-34"/>
       <use xlink:href="#ArialMT-30" x="55.615234"/>
      </g>
     </g>
    </g>
    <g id="ytick_5">
     <g id="line2d_33">
      <path d="M 90 227.943529 
L 648 227.943529 
" clip-path="url(#pc08a6396e4)" style="fill: none; stroke-dasharray: 2.96,1.28; stroke-dashoffset: 0; stroke: #cccccc; stroke-opacity: 0.5; stroke-width: 0.8"/>
     </g>
     <g id="line2d_34"/>
     <g id="text_18">
      <!-- 60 -->
      <g style="fill: #262626" transform="translate(66.480625 234.385561) scale(0.18 -0.18)">
       <use xlink:href="#ArialMT-36"/>
       <use xlink:href="#ArialMT-30" x="55.615234"/>
      </g>
     </g>
    </g>
    <g id="ytick_6">
     <g id="line2d_35">
      <path d="M 90 188.809412 
L 648 188.809412 
" clip-path="url(#pc08a6396e4)" style="fill: none; stroke-dasharray: 2.96,1.28; stroke-dashoffset: 0; stroke: #cccccc; stroke-opacity: 0.5; stroke-width: 0.8"/>
     </g>
     <g id="line2d_36"/>
     <g id="text_19">
      <!-- 80 -->
      <g style="fill: #262626" transform="translate(66.480625 195.251443) scale(0.18 -0.18)">
       <use xlink:href="#ArialMT-38"/>
       <use xlink:href="#ArialMT-30" x="55.615234"/>
      </g>
     </g>
    </g>
    <g id="ytick_7">
     <g id="line2d_37">
      <path d="M 90 149.675294 
L 648 149.675294 
" clip-path="url(#pc08a6396e4)" style="fill: none; stroke-dasharray: 2.96,1.28; stroke-dashoffset: 0; stroke: #cccccc; stroke-opacity: 0.5; stroke-width: 0.8"/>
     </g>
     <g id="line2d_38"/>
     <g id="text_20">
      <!-- 100 -->
      <g style="fill: #262626" transform="translate(56.470938 156.117325) scale(0.18 -0.18)">
       <use xlink:href="#ArialMT-31"/>
       <use xlink:href="#ArialMT-30" x="55.615234"/>
       <use xlink:href="#ArialMT-30" x="111.230469"/>
      </g>
     </g>
    </g>
    <g id="ytick_8">
     <g id="line2d_39">
      <path d="M 90 110.541176 
L 648 110.541176 
" clip-path="url(#pc08a6396e4)" style="fill: none; stroke-dasharray: 2.96,1.28; stroke-dashoffset: 0; stroke: #cccccc; stroke-opacity: 0.5; stroke-width: 0.8"/>
     </g>
     <g id="line2d_40"/>
     <g id="text_21">
      <!-- 120 -->
      <g style="fill: #262626" transform="translate(56.470938 116.983208) scale(0.18 -0.18)">
       <use xlink:href="#ArialMT-31"/>
       <use xlink:href="#ArialMT-32" x="55.615234"/>
       <use xlink:href="#ArialMT-30" x="111.230469"/>
      </g>
     </g>
    </g>
    <g id="ytick_9">
     <g id="line2d_41">
      <path d="M 90 71.407059 
L 648 71.407059 
" clip-path="url(#pc08a6396e4)" style="fill: none; stroke-dasharray: 2.96,1.28; stroke-dashoffset: 0; stroke: #cccccc; stroke-opacity: 0.5; stroke-width: 0.8"/>
     </g>
     <g id="line2d_42"/>
     <g id="text_22">
      <!-- 140 -->
      <g style="fill: #262626" transform="translate(56.470938 77.84909) scale(0.18 -0.18)">
       <use xlink:href="#ArialMT-31"/>
       <use xlink:href="#ArialMT-34" x="55.615234"/>
       <use xlink:href="#ArialMT-30" x="111.230469"/>
      </g>
     </g>
    </g>
    <g id="text_23">
     <!-- PM2.5 Concentration [$\mu$g/m$^3$] -->
     <g style="fill: #262626" transform="translate(46.6875 374.4) rotate(-90) scale(0.24 -0.24)">
      <defs>
       <path id="ArialMT-50" d="M 494 0 
L 494 4581 
L 2222 4581 
Q 2678 4581 2919 4538 
Q 3256 4481 3484 4323 
Q 3713 4166 3852 3881 
Q 3991 3597 3991 3256 
Q 3991 2672 3619 2267 
Q 3247 1863 2275 1863 
L 1100 1863 
L 1100 0 
L 494 0 
z
M 1100 2403 
L 2284 2403 
Q 2872 2403 3119 2622 
Q 3366 2841 3366 3238 
Q 3366 3525 3220 3729 
Q 3075 3934 2838 4000 
Q 2684 4041 2272 4041 
L 1100 4041 
L 1100 2403 
z
" transform="scale(0.015625)"/>
       <path id="ArialMT-4d" d="M 475 0 
L 475 4581 
L 1388 4581 
L 2472 1338 
Q 2622 884 2691 659 
Q 2769 909 2934 1394 
L 4031 4581 
L 4847 4581 
L 4847 0 
L 4263 0 
L 4263 3834 
L 2931 0 
L 2384 0 
L 1059 3900 
L 1059 0 
L 475 0 
z
" transform="scale(0.015625)"/>
       <path id="ArialMT-2e" d="M 581 0 
L 581 641 
L 1222 641 
L 1222 0 
L 581 0 
z
" transform="scale(0.015625)"/>
       <path id="ArialMT-35" d="M 266 1200 
L 856 1250 
Q 922 819 1161 601 
Q 1400 384 1738 384 
Q 2144 384 2425 690 
Q 2706 997 2706 1503 
Q 2706 1984 2436 2262 
Q 2166 2541 1728 2541 
Q 1456 2541 1237 2417 
Q 1019 2294 894 2097 
L 366 2166 
L 809 4519 
L 3088 4519 
L 3088 3981 
L 1259 3981 
L 1013 2750 
Q 1425 3038 1878 3038 
Q 2478 3038 2890 2622 
Q 3303 2206 3303 1553 
Q 3303 931 2941 478 
Q 2500 -78 1738 -78 
Q 1113 -78 717 272 
Q 322 622 266 1200 
z
" transform="scale(0.015625)"/>
       <path id="ArialMT-43" d="M 3763 1606 
L 4369 1453 
Q 4178 706 3683 314 
Q 3188 -78 2472 -78 
Q 1731 -78 1267 223 
Q 803 525 561 1097 
Q 319 1669 319 2325 
Q 319 3041 592 3573 
Q 866 4106 1370 4382 
Q 1875 4659 2481 4659 
Q 3169 4659 3637 4309 
Q 4106 3959 4291 3325 
L 3694 3184 
Q 3534 3684 3231 3912 
Q 2928 4141 2469 4141 
Q 1941 4141 1586 3887 
Q 1231 3634 1087 3207 
Q 944 2781 944 2328 
Q 944 1744 1114 1308 
Q 1284 872 1643 656 
Q 2003 441 2422 441 
Q 2931 441 3284 734 
Q 3638 1028 3763 1606 
z
" transform="scale(0.015625)"/>
       <path id="ArialMT-6e" d="M 422 0 
L 422 3319 
L 928 3319 
L 928 2847 
Q 1294 3394 1984 3394 
Q 2284 3394 2536 3286 
Q 2788 3178 2913 3003 
Q 3038 2828 3088 2588 
Q 3119 2431 3119 2041 
L 3119 0 
L 2556 0 
L 2556 2019 
Q 2556 2363 2490 2533 
Q 2425 2703 2258 2804 
Q 2091 2906 1866 2906 
Q 1506 2906 1245 2678 
Q 984 2450 984 1813 
L 984 0 
L 422 0 
z
" transform="scale(0.015625)"/>
       <path id="ArialMT-63" d="M 2588 1216 
L 3141 1144 
Q 3050 572 2676 248 
Q 2303 -75 1759 -75 
Q 1078 -75 664 370 
Q 250 816 250 1647 
Q 250 2184 428 2587 
Q 606 2991 970 3192 
Q 1334 3394 1763 3394 
Q 2303 3394 2647 3120 
Q 2991 2847 3088 2344 
L 2541 2259 
Q 2463 2594 2264 2762 
Q 2066 2931 1784 2931 
Q 1359 2931 1093 2626 
Q 828 2322 828 1663 
Q 828 994 1084 691 
Q 1341 388 1753 388 
Q 2084 388 2306 591 
Q 2528 794 2588 1216 
z
" transform="scale(0.015625)"/>
       <path id="ArialMT-65" d="M 2694 1069 
L 3275 997 
Q 3138 488 2766 206 
Q 2394 -75 1816 -75 
Q 1088 -75 661 373 
Q 234 822 234 1631 
Q 234 2469 665 2931 
Q 1097 3394 1784 3394 
Q 2450 3394 2872 2941 
Q 3294 2488 3294 1666 
Q 3294 1616 3291 1516 
L 816 1516 
Q 847 969 1125 678 
Q 1403 388 1819 388 
Q 2128 388 2347 550 
Q 2566 713 2694 1069 
z
M 847 1978 
L 2700 1978 
Q 2663 2397 2488 2606 
Q 2219 2931 1791 2931 
Q 1403 2931 1139 2672 
Q 875 2413 847 1978 
z
" transform="scale(0.015625)"/>
       <path id="ArialMT-74" d="M 1650 503 
L 1731 6 
Q 1494 -44 1306 -44 
Q 1000 -44 831 53 
Q 663 150 594 308 
Q 525 466 525 972 
L 525 2881 
L 113 2881 
L 113 3319 
L 525 3319 
L 525 4141 
L 1084 4478 
L 1084 3319 
L 1650 3319 
L 1650 2881 
L 1084 2881 
L 1084 941 
Q 1084 700 1114 631 
Q 1144 563 1211 522 
Q 1278 481 1403 481 
Q 1497 481 1650 503 
z
" transform="scale(0.015625)"/>
       <path id="ArialMT-69" d="M 425 3934 
L 425 4581 
L 988 4581 
L 988 3934 
L 425 3934 
z
M 425 0 
L 425 3319 
L 988 3319 
L 988 0 
L 425 0 
z
" transform="scale(0.015625)"/>
       <path id="ArialMT-5b" d="M 434 -1272 
L 434 4581 
L 1675 4581 
L 1675 4116 
L 997 4116 
L 997 -806 
L 1675 -806 
L 1675 -1272 
L 434 -1272 
z
" transform="scale(0.015625)"/>
       <path id="DejaVuSans-Oblique-3bc" d="M -84 -1331 
L 856 3500 
L 1434 3500 
L 1009 1322 
Q 997 1256 987 1175 
Q 978 1094 978 1013 
Q 978 722 1161 565 
Q 1344 409 1684 409 
Q 2147 409 2431 671 
Q 2716 934 2816 1459 
L 3213 3500 
L 3788 3500 
L 3266 809 
Q 3253 750 3248 706 
Q 3244 663 3244 628 
Q 3244 531 3283 486 
Q 3322 441 3406 441 
Q 3438 441 3492 456 
Q 3547 472 3647 513 
L 3559 50 
Q 3422 -19 3297 -55 
Q 3172 -91 3053 -91 
Q 2847 -91 2730 40 
Q 2613 172 2613 403 
Q 2438 153 2195 31 
Q 1953 -91 1625 -91 
Q 1334 -91 1117 43 
Q 900 178 831 397 
L 494 -1331 
L -84 -1331 
z
" transform="scale(0.015625)"/>
       <path id="ArialMT-67" d="M 319 -275 
L 866 -356 
Q 900 -609 1056 -725 
Q 1266 -881 1628 -881 
Q 2019 -881 2231 -725 
Q 2444 -569 2519 -288 
Q 2563 -116 2559 434 
Q 2191 0 1641 0 
Q 956 0 581 494 
Q 206 988 206 1678 
Q 206 2153 378 2554 
Q 550 2956 876 3175 
Q 1203 3394 1644 3394 
Q 2231 3394 2613 2919 
L 2613 3319 
L 3131 3319 
L 3131 450 
Q 3131 -325 2973 -648 
Q 2816 -972 2473 -1159 
Q 2131 -1347 1631 -1347 
Q 1038 -1347 672 -1080 
Q 306 -813 319 -275 
z
M 784 1719 
Q 784 1066 1043 766 
Q 1303 466 1694 466 
Q 2081 466 2343 764 
Q 2606 1063 2606 1700 
Q 2606 2309 2336 2618 
Q 2066 2928 1684 2928 
Q 1309 2928 1046 2623 
Q 784 2319 784 1719 
z
" transform="scale(0.015625)"/>
       <path id="ArialMT-2f" d="M 0 -78 
L 1328 4659 
L 1778 4659 
L 453 -78 
L 0 -78 
z
" transform="scale(0.015625)"/>
       <path id="ArialMT-6d" d="M 422 0 
L 422 3319 
L 925 3319 
L 925 2853 
Q 1081 3097 1340 3245 
Q 1600 3394 1931 3394 
Q 2300 3394 2536 3241 
Q 2772 3088 2869 2813 
Q 3263 3394 3894 3394 
Q 4388 3394 4653 3120 
Q 4919 2847 4919 2278 
L 4919 0 
L 4359 0 
L 4359 2091 
Q 4359 2428 4304 2576 
Q 4250 2725 4106 2815 
Q 3963 2906 3769 2906 
Q 3419 2906 3187 2673 
Q 2956 2441 2956 1928 
L 2956 0 
L 2394 0 
L 2394 2156 
Q 2394 2531 2256 2718 
Q 2119 2906 1806 2906 
Q 1569 2906 1367 2781 
Q 1166 2656 1075 2415 
Q 984 2175 984 1722 
L 984 0 
L 422 0 
z
" transform="scale(0.015625)"/>
       <path id="DejaVuSans-33" d="M 2597 2516 
Q 3050 2419 3304 2112 
Q 3559 1806 3559 1356 
Q 3559 666 3084 287 
Q 2609 -91 1734 -91 
Q 1441 -91 1130 -33 
Q 819 25 488 141 
L 488 750 
Q 750 597 1062 519 
Q 1375 441 1716 441 
Q 2309 441 2620 675 
Q 2931 909 2931 1356 
Q 2931 1769 2642 2001 
Q 2353 2234 1838 2234 
L 1294 2234 
L 1294 2753 
L 1863 2753 
Q 2328 2753 2575 2939 
Q 2822 3125 2822 3475 
Q 2822 3834 2567 4026 
Q 2313 4219 1838 4219 
Q 1578 4219 1281 4162 
Q 984 4106 628 3988 
L 628 4550 
Q 988 4650 1302 4700 
Q 1616 4750 1894 4750 
Q 2613 4750 3031 4423 
Q 3450 4097 3450 3541 
Q 3450 3153 3228 2886 
Q 3006 2619 2597 2516 
z
" transform="scale(0.015625)"/>
       <path id="ArialMT-5d" d="M 1363 -1272 
L 122 -1272 
L 122 -806 
L 800 -806 
L 800 4116 
L 122 4116 
L 122 4581 
L 1363 4581 
L 1363 -1272 
z
" transform="scale(0.015625)"/>
      </defs>
      <use xlink:href="#ArialMT-50" transform="translate(0 0.765625)"/>
      <use xlink:href="#ArialMT-4d" transform="translate(66.699219 0.765625)"/>
      <use xlink:href="#ArialMT-32" transform="translate(150 0.765625)"/>
      <use xlink:href="#ArialMT-2e" transform="translate(205.615234 0.765625)"/>
      <use xlink:href="#ArialMT-35" transform="translate(233.398438 0.765625)"/>
      <use xlink:href="#ArialMT-20" transform="translate(289.013672 0.765625)"/>
      <use xlink:href="#ArialMT-43" transform="translate(316.796875 0.765625)"/>
      <use xlink:href="#ArialMT-6f" transform="translate(389.013672 0.765625)"/>
      <use xlink:href="#ArialMT-6e" transform="translate(444.628906 0.765625)"/>
      <use xlink:href="#ArialMT-63" transform="translate(500.244141 0.765625)"/>
      <use xlink:href="#ArialMT-65" transform="translate(550.244141 0.765625)"/>
      <use xlink:href="#ArialMT-6e" transform="translate(605.859375 0.765625)"/>
      <use xlink:href="#ArialMT-74" transform="translate(661.474609 0.765625)"/>
      <use xlink:href="#ArialMT-72" transform="translate(689.257812 0.765625)"/>
      <use xlink:href="#ArialMT-61" transform="translate(722.558594 0.765625)"/>
      <use xlink:href="#ArialMT-74" transform="translate(778.173828 0.765625)"/>
      <use xlink:href="#ArialMT-69" transform="translate(805.957031 0.765625)"/>
      <use xlink:href="#ArialMT-6f" transform="translate(828.173828 0.765625)"/>
      <use xlink:href="#ArialMT-6e" transform="translate(883.789062 0.765625)"/>
      <use xlink:href="#ArialMT-20" transform="translate(939.404297 0.765625)"/>
      <use xlink:href="#ArialMT-5b" transform="translate(967.1875 0.765625)"/>
      <use xlink:href="#DejaVuSans-Oblique-3bc" transform="translate(994.970703 0.765625)"/>
      <use xlink:href="#ArialMT-67" transform="translate(1058.59375 0.765625)"/>
      <use xlink:href="#ArialMT-2f" transform="translate(1114.208984 0.765625)"/>
      <use xlink:href="#ArialMT-6d" transform="translate(1141.992188 0.765625)"/>
      <use xlink:href="#DejaVuSans-33" transform="translate(1226.25 39.046875) scale(0.7)"/>
      <use xlink:href="#ArialMT-5d" transform="translate(1273.520508 0.765625)"/>
     </g>
    </g>
   </g>
   <g id="PolyCollection_1">
    <path d="M 115.363636 287.544933 
L 115.363636 308.586485 
L 137.418972 292.371742 
L 159.474308 297.832071 
L 181.529644 295.814886 
L 203.58498 276.881816 
L 225.640316 292.376722 
L 247.695652 298.014302 
L 269.750988 308.930822 
L 291.806324 308.601917 
L 313.86166 320.2497 
L 335.916996 342.549621 
L 357.972332 350.438352 
L 380.027668 348.759432 
L 402.083004 350.156987 
L 424.13834 349.451457 
L 446.193676 359.969301 
L 468.249012 348.610623 
L 490.304348 344.293504 
L 512.359684 332.814032 
L 534.41502 328.742338 
L 556.470356 308.463929 
L 578.525692 313.825019 
L 600.581028 269.049511 
L 622.636364 264.704939 
L 622.636364 248.806696 
L 622.636364 248.806696 
L 600.581028 229.187349 
L 578.525692 146.97611 
L 556.470356 168.858999 
L 534.41502 158.418487 
L 512.359684 155.588123 
L 490.304348 179.881544 
L 468.249012 196.531434 
L 446.193676 207.662611 
L 424.13834 218.571256 
L 402.083004 232.985558 
L 380.027668 229.724338 
L 357.972332 220.862595 
L 335.916996 202.870436 
L 313.86166 206.574256 
L 291.806324 138.767622 
L 269.750988 99.278533 
L 247.695652 119.642527 
L 225.640316 207.689277 
L 203.58498 265.490601 
L 181.529644 289.957892 
L 159.474308 290.971002 
L 137.418972 285.732681 
L 115.363636 287.544933 
z
" clip-path="url(#pc08a6396e4)" style="fill: #1f77b4; fill-opacity: 0.1"/>
   </g>
   <g id="PolyCollection_2">
    <path d="M 115.363636 314.116357 
L 115.363636 316.130728 
L 137.418972 315.604648 
L 203.58498 301.28073 
L 225.640316 279.052886 
L 247.695652 290.752135 
L 269.750988 304.326911 
L 291.806324 312.453008 
L 313.86166 313.344394 
L 335.916996 331.554738 
L 357.972332 343.048549 
L 380.027668 344.47442 
L 402.083004 341.637885 
L 424.13834 353.183417 
L 446.193676 354.843953 
L 468.249012 361.929977 
L 490.304348 341.774834 
L 512.359684 351.517034 
L 534.41502 318.656636 
L 556.470356 311.938018 
L 578.525692 330.959693 
L 600.581028 334.953456 
L 622.636364 324.916771 
L 622.636364 314.682894 
L 622.636364 314.682894 
L 600.581028 139.362781 
L 578.525692 170.646458 
L 556.470356 172.719877 
L 534.41502 181.512114 
L 512.359684 149.497467 
L 490.304348 223.908445 
L 468.249012 213.996744 
L 446.193676 252.639119 
L 424.13834 217.485132 
L 402.083004 219.530147 
L 380.027668 206.158149 
L 357.972332 198.948067 
L 335.916996 178.047828 
L 313.86166 176.991252 
L 291.806324 152.548314 
L 269.750988 135.680385 
L 247.695652 156.305194 
L 225.640316 173.213018 
L 203.58498 206.346386 
L 137.418972 315.466288 
L 115.363636 314.116357 
z
" clip-path="url(#pc08a6396e4)" style="fill: #ff7f0e; fill-opacity: 0.1"/>
   </g>
   <g id="PolyCollection_3">
    <path d="M 115.363636 314.955897 
L 115.363636 325.198933 
L 137.418972 336.166647 
L 159.474308 337.0306 
L 181.529644 334.537356 
L 203.58498 328.893942 
L 225.640316 299.619171 
L 247.695652 314.811337 
L 269.750988 318.095684 
L 291.806324 324.611506 
L 313.86166 334.2427 
L 335.916996 335.187616 
L 357.972332 349.549484 
L 380.027668 337.774535 
L 402.083004 330.405003 
L 424.13834 323.472745 
L 446.193676 320.925356 
L 468.249012 322.260249 
L 490.304348 321.701211 
L 512.359684 321.087701 
L 534.41502 319.930519 
L 556.470356 304.915404 
L 578.525692 319.335435 
L 600.581028 342.784736 
L 600.581028 120.433778 
L 600.581028 120.433778 
L 578.525692 169.177759 
L 556.470356 170.864881 
L 534.41502 190.41705 
L 512.359684 124.549368 
L 490.304348 151.202709 
L 468.249012 172.486549 
L 446.193676 166.183426 
L 424.13834 194.104851 
L 402.083004 207.821988 
L 380.027668 210.397348 
L 357.972332 169.772037 
L 335.916996 178.867016 
L 313.86166 168.540699 
L 291.806324 180.105743 
L 269.750988 151.746389 
L 247.695652 140.670363 
L 225.640316 209.845533 
L 203.58498 287.909729 
L 181.529644 332.731274 
L 159.474308 335.429668 
L 137.418972 333.919722 
L 115.363636 314.955897 
z
" clip-path="url(#pc08a6396e4)" style="fill: #2ca02c; fill-opacity: 0.1"/>
   </g>
   <g id="PolyCollection_4">
    <path d="M 115.363636 291.093534 
L 115.363636 293.193923 
L 203.58498 285.229891 
L 225.640316 320.357644 
L 247.695652 301.992972 
L 269.750988 299.021054 
L 291.806324 323.772598 
L 313.86166 320.240942 
L 335.916996 343.407661 
L 357.972332 340.715034 
L 380.027668 344.26103 
L 402.083004 342.407906 
L 424.13834 344.729378 
L 446.193676 346.029926 
L 468.249012 338.966463 
L 490.304348 339.591422 
L 512.359684 326.324515 
L 534.41502 325.108069 
L 556.470356 310.378766 
L 578.525692 308.048584 
L 600.581028 324.911601 
L 622.636364 308.013347 
L 622.636364 283.532131 
L 622.636364 283.532131 
L 600.581028 229.852396 
L 578.525692 198.564713 
L 556.470356 225.690677 
L 534.41502 176.311293 
L 512.359684 148.47136 
L 490.304348 188.240308 
L 468.249012 208.551608 
L 446.193676 206.695888 
L 424.13834 220.793657 
L 402.083004 232.2546 
L 380.027668 222.57325 
L 357.972332 206.746914 
L 335.916996 202.303376 
L 313.86166 167.248113 
L 291.806324 138.170526 
L 269.750988 139.299121 
L 247.695652 122.2416 
L 225.640316 187.443568 
L 203.58498 280.542043 
L 115.363636 291.093534 
z
" clip-path="url(#pc08a6396e4)" style="fill: #d62728; fill-opacity: 0.1"/>
   </g>
   <g id="PolyCollection_5">
    <path d="M 115.363636 297.950707 
L 115.363636 333.890006 
L 137.418972 292.463632 
L 159.474308 297.913664 
L 181.529644 300.205812 
L 203.58498 269.116671 
L 225.640316 289.457178 
L 247.695652 292.573162 
L 269.750988 287.860093 
L 291.806324 309.11907 
L 313.86166 326.520224 
L 335.916996 343.231638 
L 357.972332 344.875178 
L 380.027668 339.178302 
L 402.083004 344.289591 
L 424.13834 351.484096 
L 446.193676 348.71897 
L 468.249012 333.729692 
L 490.304348 321.686864 
L 512.359684 318.934819 
L 534.41502 307.375669 
L 556.470356 289.084733 
L 578.525692 293.401405 
L 600.581028 338.668487 
L 622.636364 104.45564 
L 622.636364 -303.796703 
L 622.636364 -303.796703 
L 600.581028 -50.003269 
L 578.525692 135.874466 
L 556.470356 161.869541 
L 534.41502 126.509561 
L 512.359684 115.25324 
L 490.304348 165.768883 
L 468.249012 191.913798 
L 446.193676 178.399043 
L 424.13834 191.934274 
L 402.083004 225.869706 
L 380.027668 230.469085 
L 357.972332 218.613092 
L 335.916996 204.991544 
L 313.86166 183.610949 
L 291.806324 143.831732 
L 269.750988 115.958257 
L 247.695652 137.741962 
L 225.640316 143.943752 
L 203.58498 191.202859 
L 181.529644 295.752649 
L 159.474308 294.210029 
L 137.418972 287.542669 
L 115.363636 297.950707 
z
" clip-path="url(#pc08a6396e4)" style="fill: #9467bd; fill-opacity: 0.1"/>
   </g>
   <g id="PolyCollection_6">
    <path d="M 225.640316 157.57074 
L 225.640316 282.740641 
L 247.695652 281.776399 
L 269.750988 296.846356 
L 291.806324 319.664375 
L 313.86166 336.117087 
L 335.916996 340.220726 
L 357.972332 353.570943 
L 380.027668 342.202986 
L 402.083004 359.277753 
L 424.13834 353.606499 
L 446.193676 357.015274 
L 468.249012 351.126842 
L 490.304348 343.957487 
L 512.359684 336.479492 
L 534.41502 306.451186 
L 556.470356 302.382946 
L 578.525692 312.276726 
L 600.581028 370.027055 
L 622.636364 320.817561 
L 622.636364 319.215487 
L 622.636364 319.215487 
L 600.581028 64.565781 
L 578.525692 169.854377 
L 556.470356 169.269454 
L 534.41502 163.349006 
L 512.359684 171.91418 
L 490.304348 202.810827 
L 468.249012 209.129179 
L 446.193676 213.689456 
L 424.13834 226.132712 
L 402.083004 220.124413 
L 380.027668 230.652374 
L 357.972332 202.797885 
L 335.916996 213.512834 
L 313.86166 175.977944 
L 291.806324 158.915749 
L 269.750988 145.351684 
L 247.695652 171.509848 
L 225.640316 157.57074 
z
" clip-path="url(#pc08a6396e4)" style="fill: #8c564b; fill-opacity: 0.1"/>
   </g>
   <g id="PolyCollection_7">
    <path d="M 115.363636 319.950581 
L 115.363636 321.489905 
L 225.640316 275.040612 
L 247.695652 262.434054 
L 269.750988 319.850408 
L 291.806324 320.737184 
L 313.86166 340.937408 
L 335.916996 332.11861 
L 357.972332 346.317131 
L 380.027668 340.459951 
L 402.083004 351.389154 
L 424.13834 356.713574 
L 446.193676 344.970211 
L 468.249012 336.382106 
L 490.304348 343.182438 
L 512.359684 323.594297 
L 534.41502 307.457955 
L 556.470356 300.227682 
L 578.525692 301.12363 
L 600.581028 343.789815 
L 622.636364 330.632762 
L 622.636364 289.432518 
L 622.636364 289.432518 
L 600.581028 251.070322 
L 578.525692 180.537974 
L 556.470356 169.788255 
L 534.41502 142.313374 
L 512.359684 160.132307 
L 490.304348 227.704192 
L 468.249012 234.894165 
L 446.193676 225.874186 
L 424.13834 217.375222 
L 402.083004 216.060778 
L 380.027668 238.988382 
L 357.972332 248.041996 
L 335.916996 254.475851 
L 313.86166 220.639592 
L 291.806324 207.277619 
L 269.750988 192.231425 
L 247.695652 162.718146 
L 225.640316 211.920323 
L 115.363636 319.950581 
z
" clip-path="url(#pc08a6396e4)" style="fill: #e377c2; fill-opacity: 0.1"/>
   </g>
   <g id="line2d_43">
    <path d="M 115.363636 298.065709 
L 137.418972 289.052212 
L 159.474308 294.401537 
L 181.529644 292.886389 
L 203.58498 271.186209 
L 225.640316 250.033 
L 247.695652 208.828414 
L 269.750988 204.104678 
L 291.806324 223.684769 
L 313.86166 263.411978 
L 335.916996 272.710028 
L 357.972332 285.650474 
L 380.027668 289.241885 
L 402.083004 291.571273 
L 424.13834 284.011356 
L 446.193676 283.815956 
L 468.249012 272.571029 
L 490.304348 262.087524 
L 512.359684 244.201077 
L 534.41502 243.580413 
L 556.470356 238.661464 
L 578.525692 230.400565 
L 600.581028 249.11843 
L 622.636364 256.755818 
" clip-path="url(#pc08a6396e4)" style="fill: none; stroke: #1f77b4; stroke-width: 1.5; stroke-linecap: round"/>
   </g>
   <g id="line2d_44">
    <path d="M 115.363636 315.123543 
L 137.418972 315.535468 
L 203.58498 253.813558 
L 225.640316 226.132952 
L 247.695652 223.528664 
L 269.750988 220.003648 
L 291.806324 232.500661 
L 313.86166 245.167823 
L 335.916996 254.801283 
L 357.972332 270.998308 
L 380.027668 275.316284 
L 402.083004 280.584016 
L 424.13834 285.334275 
L 446.193676 303.741536 
L 468.249012 287.963361 
L 490.304348 282.841639 
L 512.359684 250.507251 
L 534.41502 250.084375 
L 556.470356 242.328948 
L 578.525692 250.803076 
L 600.581028 237.158119 
L 622.636364 319.799833 
" clip-path="url(#pc08a6396e4)" style="fill: none; stroke: #ff7f0e; stroke-width: 1.5; stroke-linecap: round"/>
   </g>
   <g id="line2d_45">
    <path d="M 115.363636 320.077415 
L 137.418972 335.043184 
L 159.474308 336.230134 
L 181.529644 333.634315 
L 203.58498 308.401835 
L 225.640316 254.732352 
L 247.695652 227.74085 
L 269.750988 234.921037 
L 291.806324 252.358624 
L 313.86166 251.3917 
L 335.916996 257.027316 
L 357.972332 259.660761 
L 380.027668 274.085941 
L 402.083004 269.113496 
L 424.13834 258.788798 
L 446.193676 243.554391 
L 468.249012 247.373399 
L 490.304348 236.45196 
L 512.359684 222.818535 
L 534.41502 255.173785 
L 556.470356 237.890143 
L 578.525692 244.256597 
L 600.581028 231.609257 
" clip-path="url(#pc08a6396e4)" style="fill: none; stroke: #2ca02c; stroke-width: 1.5; stroke-linecap: round"/>
   </g>
   <g id="line2d_46">
    <path d="M 115.363636 292.143729 
L 203.58498 282.885967 
L 225.640316 253.900606 
L 247.695652 212.117286 
L 269.750988 219.160087 
L 291.806324 230.971562 
L 313.86166 243.744527 
L 335.916996 272.855519 
L 357.972332 273.730974 
L 380.027668 283.41714 
L 402.083004 287.331253 
L 424.13834 282.761517 
L 446.193676 276.362907 
L 468.249012 273.759035 
L 490.304348 263.915865 
L 512.359684 237.397937 
L 534.41502 250.709681 
L 556.470356 268.034722 
L 578.525692 253.306649 
L 600.581028 277.381999 
L 622.636364 295.772739 
" clip-path="url(#pc08a6396e4)" style="fill: none; stroke: #d62728; stroke-width: 1.5; stroke-linecap: round"/>
   </g>
   <g id="line2d_47">
    <path d="M 115.363636 315.920356 
L 137.418972 290.00315 
L 159.474308 296.061847 
L 181.529644 297.97923 
L 203.58498 230.159765 
L 225.640316 216.700465 
L 247.695652 215.157562 
L 269.750988 201.909175 
L 291.806324 226.475401 
L 313.86166 255.065587 
L 335.916996 274.111591 
L 357.972332 281.744135 
L 380.027668 284.823694 
L 402.083004 285.079649 
L 424.13834 271.709185 
L 446.193676 263.559006 
L 468.249012 262.821745 
L 490.304348 243.727873 
L 512.359684 217.09403 
L 534.41502 216.942615 
L 556.470356 225.477137 
L 578.525692 214.637936 
L 600.581028 144.332609 
L 613.717578 -1 
" clip-path="url(#pc08a6396e4)" style="fill: none; stroke: #9467bd; stroke-width: 1.5; stroke-linecap: round"/>
   </g>
   <g id="line2d_48">
    <path d="M 225.640316 220.15569 
L 247.695652 226.643124 
L 269.750988 221.09902 
L 291.806324 239.290062 
L 313.86166 256.047515 
L 335.916996 276.86678 
L 357.972332 278.184414 
L 380.027668 286.42768 
L 402.083004 289.701083 
L 424.13834 289.869605 
L 446.193676 285.352365 
L 468.249012 280.12801 
L 490.304348 273.384157 
L 512.359684 254.196836 
L 534.41502 234.900096 
L 556.470356 235.8262 
L 578.525692 241.065551 
L 600.581028 217.296418 
L 622.636364 320.016524 
" clip-path="url(#pc08a6396e4)" style="fill: none; stroke: #8c564b; stroke-width: 1.5; stroke-linecap: round"/>
   </g>
   <g id="line2d_49">
    <path d="M 115.363636 320.720243 
L 225.640316 243.480467 
L 247.695652 212.5761 
L 269.750988 256.040917 
L 291.806324 264.007401 
L 313.86166 280.7885 
L 335.916996 293.297231 
L 357.972332 297.179564 
L 380.027668 289.724166 
L 402.083004 283.724966 
L 424.13834 287.044398 
L 446.193676 285.422199 
L 468.249012 285.638136 
L 490.304348 285.443315 
L 512.359684 241.863302 
L 534.41502 224.885665 
L 556.470356 235.007969 
L 578.525692 240.830802 
L 600.581028 297.430069 
L 622.636364 310.03264 
" clip-path="url(#pc08a6396e4)" style="fill: none; stroke: #e377c2; stroke-width: 1.5; stroke-linecap: round"/>
   </g>
   <g id="patch_3">
    <path d="M 90 384.48 
L 90 51.84 
" style="fill: none; stroke: #262626; stroke-width: 1.25; stroke-linejoin: miter; stroke-linecap: square"/>
   </g>
   <g id="patch_4">
    <path d="M 648 384.48 
L 648 51.84 
" style="fill: none; stroke: #262626; stroke-width: 1.25; stroke-linejoin: miter; stroke-linecap: square"/>
   </g>
   <g id="patch_5">
    <path d="M 90 384.48 
L 648 384.48 
" style="fill: none; stroke: #262626; stroke-width: 1.25; stroke-linejoin: miter; stroke-linecap: square"/>
   </g>
   <g id="patch_6">
    <path d="M 90 51.84 
L 648 51.84 
" style="fill: none; stroke: #262626; stroke-width: 1.25; stroke-linejoin: miter; stroke-linecap: square"/>
   </g>
   <g id="legend_1">
    <g id="line2d_50">
     <path d="M 106.2 74.624062 
L 124.2 74.624062 
L 142.2 74.624062 
" style="fill: none; stroke: #1f77b4; stroke-width: 1.5; stroke-linecap: round"/>
    </g>
    <g id="text_24">
     <!-- Mo -->
     <g style="fill: #262626" transform="translate(156.6 80.924062) scale(0.18 -0.18)">
      <use xlink:href="#ArialMT-4d"/>
      <use xlink:href="#ArialMT-6f" x="83.300781"/>
     </g>
    </g>
    <g id="line2d_51">
     <path d="M 106.2 100.085625 
L 124.2 100.085625 
L 142.2 100.085625 
" style="fill: none; stroke: #ff7f0e; stroke-width: 1.5; stroke-linecap: round"/>
    </g>
    <g id="text_25">
     <!-- Tu -->
     <g style="fill: #262626" transform="translate(156.6 106.385625) scale(0.18 -0.18)">
      <defs>
       <path id="ArialMT-54" d="M 1659 0 
L 1659 4041 
L 150 4041 
L 150 4581 
L 3781 4581 
L 3781 4041 
L 2266 4041 
L 2266 0 
L 1659 0 
z
" transform="scale(0.015625)"/>
      </defs>
      <use xlink:href="#ArialMT-54"/>
      <use xlink:href="#ArialMT-75" x="57.333984"/>
     </g>
    </g>
    <g id="line2d_52">
     <path d="M 106.2 125.547188 
L 124.2 125.547188 
L 142.2 125.547188 
" style="fill: none; stroke: #2ca02c; stroke-width: 1.5; stroke-linecap: round"/>
    </g>
    <g id="text_26">
     <!-- We -->
     <g style="fill: #262626" transform="translate(156.6 131.847188) scale(0.18 -0.18)">
      <defs>
       <path id="ArialMT-57" d="M 1294 0 
L 78 4581 
L 700 4581 
L 1397 1578 
Q 1509 1106 1591 641 
Q 1766 1375 1797 1488 
L 2669 4581 
L 3400 4581 
L 4056 2263 
Q 4303 1400 4413 641 
Q 4500 1075 4641 1638 
L 5359 4581 
L 5969 4581 
L 4713 0 
L 4128 0 
L 3163 3491 
Q 3041 3928 3019 4028 
Q 2947 3713 2884 3491 
L 1913 0 
L 1294 0 
z
" transform="scale(0.015625)"/>
      </defs>
      <use xlink:href="#ArialMT-57"/>
      <use xlink:href="#ArialMT-65" x="92.634766"/>
     </g>
    </g>
    <g id="line2d_53">
     <path d="M 106.2 151.00875 
L 124.2 151.00875 
L 142.2 151.00875 
" style="fill: none; stroke: #d62728; stroke-width: 1.5; stroke-linecap: round"/>
    </g>
    <g id="text_27">
     <!-- Th -->
     <g style="fill: #262626" transform="translate(156.6 157.30875) scale(0.18 -0.18)">
      <defs>
       <path id="ArialMT-68" d="M 422 0 
L 422 4581 
L 984 4581 
L 984 2938 
Q 1378 3394 1978 3394 
Q 2347 3394 2619 3248 
Q 2891 3103 3008 2847 
Q 3125 2591 3125 2103 
L 3125 0 
L 2563 0 
L 2563 2103 
Q 2563 2525 2380 2717 
Q 2197 2909 1863 2909 
Q 1613 2909 1392 2779 
Q 1172 2650 1078 2428 
Q 984 2206 984 1816 
L 984 0 
L 422 0 
z
" transform="scale(0.015625)"/>
      </defs>
      <use xlink:href="#ArialMT-54"/>
      <use xlink:href="#ArialMT-68" x="61.083984"/>
     </g>
    </g>
    <g id="line2d_54">
     <path d="M 106.2 176.470312 
L 124.2 176.470312 
L 142.2 176.470312 
" style="fill: none; stroke: #9467bd; stroke-width: 1.5; stroke-linecap: round"/>
    </g>
    <g id="text_28">
     <!-- Fr -->
     <g style="fill: #262626" transform="translate(156.6 182.770312) scale(0.18 -0.18)">
      <defs>
       <path id="ArialMT-46" d="M 525 0 
L 525 4581 
L 3616 4581 
L 3616 4041 
L 1131 4041 
L 1131 2622 
L 3281 2622 
L 3281 2081 
L 1131 2081 
L 1131 0 
L 525 0 
z
" transform="scale(0.015625)"/>
      </defs>
      <use xlink:href="#ArialMT-46"/>
      <use xlink:href="#ArialMT-72" x="61.083984"/>
     </g>
    </g>
    <g id="line2d_55">
     <path d="M 106.2 201.931875 
L 124.2 201.931875 
L 142.2 201.931875 
" style="fill: none; stroke: #8c564b; stroke-width: 1.5; stroke-linecap: round"/>
    </g>
    <g id="text_29">
     <!-- Sa -->
     <g style="fill: #262626" transform="translate(156.6 208.231875) scale(0.18 -0.18)">
      <defs>
       <path id="ArialMT-53" d="M 288 1472 
L 859 1522 
Q 900 1178 1048 958 
Q 1197 738 1509 602 
Q 1822 466 2213 466 
Q 2559 466 2825 569 
Q 3091 672 3220 851 
Q 3350 1031 3350 1244 
Q 3350 1459 3225 1620 
Q 3100 1781 2813 1891 
Q 2628 1963 1997 2114 
Q 1366 2266 1113 2400 
Q 784 2572 623 2826 
Q 463 3081 463 3397 
Q 463 3744 659 4045 
Q 856 4347 1234 4503 
Q 1613 4659 2075 4659 
Q 2584 4659 2973 4495 
Q 3363 4331 3572 4012 
Q 3781 3694 3797 3291 
L 3216 3247 
Q 3169 3681 2898 3903 
Q 2628 4125 2100 4125 
Q 1550 4125 1298 3923 
Q 1047 3722 1047 3438 
Q 1047 3191 1225 3031 
Q 1400 2872 2139 2705 
Q 2878 2538 3153 2413 
Q 3553 2228 3743 1945 
Q 3934 1663 3934 1294 
Q 3934 928 3725 604 
Q 3516 281 3123 101 
Q 2731 -78 2241 -78 
Q 1619 -78 1198 103 
Q 778 284 539 648 
Q 300 1013 288 1472 
z
" transform="scale(0.015625)"/>
      </defs>
      <use xlink:href="#ArialMT-53"/>
      <use xlink:href="#ArialMT-61" x="66.699219"/>
     </g>
    </g>
    <g id="line2d_56">
     <path d="M 106.2 227.393437 
L 124.2 227.393437 
L 142.2 227.393437 
" style="fill: none; stroke: #e377c2; stroke-width: 1.5; stroke-linecap: round"/>
    </g>
    <g id="text_30">
     <!-- Su -->
     <g style="fill: #262626" transform="translate(156.6 233.693437) scale(0.18 -0.18)">
      <use xlink:href="#ArialMT-53"/>
      <use xlink:href="#ArialMT-75" x="66.699219"/>
     </g>
    </g>
   </g>
  </g>
 </g>
 <defs>
  <clipPath id="pc08a6396e4">
   <rect x="90" y="51.84" width="558" height="332.64"/>
  </clipPath>
 </defs>
</svg>
