<?xml version="1.0" encoding="utf-8" standalone="no"?>
<!DOCTYPE svg PUBLIC "-//W3C//DTD SVG 1.1//EN"
  "http://www.w3.org/Graphics/SVG/1.1/DTD/svg11.dtd">
<svg xmlns:xlink="http://www.w3.org/1999/xlink" width="864pt" height="576pt" viewBox="0 0 864 576" xmlns="http://www.w3.org/2000/svg" version="1.1">
 <metadata>
  <rdf:RDF xmlns:dc="http://purl.org/dc/elements/1.1/" xmlns:cc="http://creativecommons.org/ns#" xmlns:rdf="http://www.w3.org/1999/02/22-rdf-syntax-ns#">
   <cc:Work>
    <dc:type rdf:resource="http://purl.org/dc/dcmitype/StillImage"/>
    <dc:date>2025-01-25T17:55:22.382149</dc:date>
    <dc:format>image/svg+xml</dc:format>
    <dc:creator>
     <cc:Agent>
      <dc:title>Matplotlib v3.8.3, https://matplotlib.org/</dc:title>
     </cc:Agent>
    </dc:creator>
   </cc:Work>
  </rdf:RDF>
 </metadata>
 <defs>
  <style type="text/css">*{stroke-linejoin: round; stroke-linecap: butt}</style>
 </defs>
 <g id="figure_1">
  <g id="patch_1">
   <path d="M 0 576 
L 864 576 
L 864 0 
L 0 0 
z
" style="fill: #ffffff"/>
  </g>
  <g id="axes_1">
   <g id="patch_2">
    <path d="M 108 512.64 
L 777.6 512.64 
L 777.6 69.12 
L 108 69.12 
z
" style="fill: #ffffff"/>
   </g>
   <g id="matplotlib.axis_1">
    <g id="xtick_1">
     <g id="line2d_1">
      <path d="M 138.436364 512.64 
L 138.436364 69.12 
" clip-path="url(#pfd133c4a60)" style="fill: none; stroke: #cccccc; stroke-opacity: 0.3; stroke-width: 0.8; stroke-linecap: round"/>
     </g>
     <g id="line2d_2"/>
     <g id="text_1">
      <!-- 00:00 -->
      <g style="fill: #262626" transform="translate(131.417776 538.894475) rotate(-45) scale(0.1 -0.1)">
       <defs>
        <path id="ArialMT-30" d="M 266 2259 
Q 266 3072 433 3567 
Q 600 4063 929 4331 
Q 1259 4600 1759 4600 
Q 2128 4600 2406 4451 
Q 2684 4303 2865 4023 
Q 3047 3744 3150 3342 
Q 3253 2941 3253 2259 
Q 3253 1453 3087 958 
Q 2922 463 2592 192 
Q 2263 -78 1759 -78 
Q 1097 -78 719 397 
Q 266 969 266 2259 
z
M 844 2259 
Q 844 1131 1108 757 
Q 1372 384 1759 384 
Q 2147 384 2411 759 
Q 2675 1134 2675 2259 
Q 2675 3391 2411 3762 
Q 2147 4134 1753 4134 
Q 1366 4134 1134 3806 
Q 844 3388 844 2259 
z
" transform="scale(0.015625)"/>
        <path id="ArialMT-3a" d="M 578 2678 
L 578 3319 
L 1219 3319 
L 1219 2678 
L 578 2678 
z
M 578 0 
L 578 641 
L 1219 641 
L 1219 0 
L 578 0 
z
" transform="scale(0.015625)"/>
       </defs>
       <use xlink:href="#ArialMT-30"/>
       <use xlink:href="#ArialMT-30" x="55.615234"/>
       <use xlink:href="#ArialMT-3a" x="111.230469"/>
       <use xlink:href="#ArialMT-30" x="139.013672"/>
       <use xlink:href="#ArialMT-30" x="194.628906"/>
      </g>
     </g>
    </g>
    <g id="xtick_2">
     <g id="line2d_3">
      <path d="M 191.36917 512.64 
L 191.36917 69.12 
" clip-path="url(#pfd133c4a60)" style="fill: none; stroke: #cccccc; stroke-opacity: 0.3; stroke-width: 0.8; stroke-linecap: round"/>
     </g>
     <g id="line2d_4"/>
     <g id="text_2">
      <!-- 02:00 -->
      <g style="fill: #262626" transform="translate(184.350583 538.894475) rotate(-45) scale(0.1 -0.1)">
       <defs>
        <path id="ArialMT-32" d="M 3222 541 
L 3222 0 
L 194 0 
Q 188 203 259 391 
Q 375 700 629 1000 
Q 884 1300 1366 1694 
Q 2113 2306 2375 2664 
Q 2638 3022 2638 3341 
Q 2638 3675 2398 3904 
Q 2159 4134 1775 4134 
Q 1369 4134 1125 3890 
Q 881 3647 878 3216 
L 300 3275 
Q 359 3922 746 4261 
Q 1134 4600 1788 4600 
Q 2447 4600 2831 4234 
Q 3216 3869 3216 3328 
Q 3216 3053 3103 2787 
Q 2991 2522 2730 2228 
Q 2469 1934 1863 1422 
Q 1356 997 1212 845 
Q 1069 694 975 541 
L 3222 541 
z
" transform="scale(0.015625)"/>
       </defs>
       <use xlink:href="#ArialMT-30"/>
       <use xlink:href="#ArialMT-32" x="55.615234"/>
       <use xlink:href="#ArialMT-3a" x="111.230469"/>
       <use xlink:href="#ArialMT-30" x="139.013672"/>
       <use xlink:href="#ArialMT-30" x="194.628906"/>
      </g>
     </g>
    </g>
    <g id="xtick_3">
     <g id="line2d_5">
      <path d="M 244.301976 512.64 
L 244.301976 69.12 
" clip-path="url(#pfd133c4a60)" style="fill: none; stroke: #cccccc; stroke-opacity: 0.3; stroke-width: 0.8; stroke-linecap: round"/>
     </g>
     <g id="line2d_6"/>
     <g id="text_3">
      <!-- 04:00 -->
      <g style="fill: #262626" transform="translate(237.283389 538.894475) rotate(-45) scale(0.1 -0.1)">
       <defs>
        <path id="ArialMT-34" d="M 2069 0 
L 2069 1097 
L 81 1097 
L 81 1613 
L 2172 4581 
L 2631 4581 
L 2631 1613 
L 3250 1613 
L 3250 1097 
L 2631 1097 
L 2631 0 
L 2069 0 
z
M 2069 1613 
L 2069 3678 
L 634 1613 
L 2069 1613 
z
" transform="scale(0.015625)"/>
       </defs>
       <use xlink:href="#ArialMT-30"/>
       <use xlink:href="#ArialMT-34" x="55.615234"/>
       <use xlink:href="#ArialMT-3a" x="111.230469"/>
       <use xlink:href="#ArialMT-30" x="139.013672"/>
       <use xlink:href="#ArialMT-30" x="194.628906"/>
      </g>
     </g>
    </g>
    <g id="xtick_4">
     <g id="line2d_7">
      <path d="M 297.234783 512.64 
L 297.234783 69.12 
" clip-path="url(#pfd133c4a60)" style="fill: none; stroke: #cccccc; stroke-opacity: 0.3; stroke-width: 0.8; stroke-linecap: round"/>
     </g>
     <g id="line2d_8"/>
     <g id="text_4">
      <!-- 06:00 -->
      <g style="fill: #262626" transform="translate(290.216195 538.894475) rotate(-45) scale(0.1 -0.1)">
       <defs>
        <path id="ArialMT-36" d="M 3184 3459 
L 2625 3416 
Q 2550 3747 2413 3897 
Q 2184 4138 1850 4138 
Q 1581 4138 1378 3988 
Q 1113 3794 959 3422 
Q 806 3050 800 2363 
Q 1003 2672 1297 2822 
Q 1591 2972 1913 2972 
Q 2475 2972 2870 2558 
Q 3266 2144 3266 1488 
Q 3266 1056 3080 686 
Q 2894 316 2569 119 
Q 2244 -78 1831 -78 
Q 1128 -78 684 439 
Q 241 956 241 2144 
Q 241 3472 731 4075 
Q 1159 4600 1884 4600 
Q 2425 4600 2770 4297 
Q 3116 3994 3184 3459 
z
M 888 1484 
Q 888 1194 1011 928 
Q 1134 663 1356 523 
Q 1578 384 1822 384 
Q 2178 384 2434 671 
Q 2691 959 2691 1453 
Q 2691 1928 2437 2201 
Q 2184 2475 1800 2475 
Q 1419 2475 1153 2201 
Q 888 1928 888 1484 
z
" transform="scale(0.015625)"/>
       </defs>
       <use xlink:href="#ArialMT-30"/>
       <use xlink:href="#ArialMT-36" x="55.615234"/>
       <use xlink:href="#ArialMT-3a" x="111.230469"/>
       <use xlink:href="#ArialMT-30" x="139.013672"/>
       <use xlink:href="#ArialMT-30" x="194.628906"/>
      </g>
     </g>
    </g>
    <g id="xtick_5">
     <g id="line2d_9">
      <path d="M 350.167589 512.64 
L 350.167589 69.12 
" clip-path="url(#pfd133c4a60)" style="fill: none; stroke: #cccccc; stroke-opacity: 0.3; stroke-width: 0.8; stroke-linecap: round"/>
     </g>
     <g id="line2d_10"/>
     <g id="text_5">
      <!-- 08:00 -->
      <g style="fill: #262626" transform="translate(343.149002 538.894475) rotate(-45) scale(0.1 -0.1)">
       <defs>
        <path id="ArialMT-38" d="M 1131 2484 
Q 781 2613 612 2850 
Q 444 3088 444 3419 
Q 444 3919 803 4259 
Q 1163 4600 1759 4600 
Q 2359 4600 2725 4251 
Q 3091 3903 3091 3403 
Q 3091 3084 2923 2848 
Q 2756 2613 2416 2484 
Q 2838 2347 3058 2040 
Q 3278 1734 3278 1309 
Q 3278 722 2862 322 
Q 2447 -78 1769 -78 
Q 1091 -78 675 323 
Q 259 725 259 1325 
Q 259 1772 486 2073 
Q 713 2375 1131 2484 
z
M 1019 3438 
Q 1019 3113 1228 2906 
Q 1438 2700 1772 2700 
Q 2097 2700 2305 2904 
Q 2513 3109 2513 3406 
Q 2513 3716 2298 3927 
Q 2084 4138 1766 4138 
Q 1444 4138 1231 3931 
Q 1019 3725 1019 3438 
z
M 838 1322 
Q 838 1081 952 856 
Q 1066 631 1291 507 
Q 1516 384 1775 384 
Q 2178 384 2440 643 
Q 2703 903 2703 1303 
Q 2703 1709 2433 1975 
Q 2163 2241 1756 2241 
Q 1359 2241 1098 1978 
Q 838 1716 838 1322 
z
" transform="scale(0.015625)"/>
       </defs>
       <use xlink:href="#ArialMT-30"/>
       <use xlink:href="#ArialMT-38" x="55.615234"/>
       <use xlink:href="#ArialMT-3a" x="111.230469"/>
       <use xlink:href="#ArialMT-30" x="139.013672"/>
       <use xlink:href="#ArialMT-30" x="194.628906"/>
      </g>
     </g>
    </g>
    <g id="xtick_6">
     <g id="line2d_11">
      <path d="M 403.100395 512.64 
L 403.100395 69.12 
" clip-path="url(#pfd133c4a60)" style="fill: none; stroke: #cccccc; stroke-opacity: 0.3; stroke-width: 0.8; stroke-linecap: round"/>
     </g>
     <g id="line2d_12"/>
     <g id="text_6">
      <!-- 10:00 -->
      <g style="fill: #262626" transform="translate(396.081808 538.894475) rotate(-45) scale(0.1 -0.1)">
       <defs>
        <path id="ArialMT-31" d="M 2384 0 
L 1822 0 
L 1822 3584 
Q 1619 3391 1289 3197 
Q 959 3003 697 2906 
L 697 3450 
Q 1169 3672 1522 3987 
Q 1875 4303 2022 4600 
L 2384 4600 
L 2384 0 
z
" transform="scale(0.015625)"/>
       </defs>
       <use xlink:href="#ArialMT-31"/>
       <use xlink:href="#ArialMT-30" x="55.615234"/>
       <use xlink:href="#ArialMT-3a" x="111.230469"/>
       <use xlink:href="#ArialMT-30" x="139.013672"/>
       <use xlink:href="#ArialMT-30" x="194.628906"/>
      </g>
     </g>
    </g>
    <g id="xtick_7">
     <g id="line2d_13">
      <path d="M 456.033202 512.64 
L 456.033202 69.12 
" clip-path="url(#pfd133c4a60)" style="fill: none; stroke: #cccccc; stroke-opacity: 0.3; stroke-width: 0.8; stroke-linecap: round"/>
     </g>
     <g id="line2d_14"/>
     <g id="text_7">
      <!-- 12:00 -->
      <g style="fill: #262626" transform="translate(449.014614 538.894475) rotate(-45) scale(0.1 -0.1)">
       <use xlink:href="#ArialMT-31"/>
       <use xlink:href="#ArialMT-32" x="55.615234"/>
       <use xlink:href="#ArialMT-3a" x="111.230469"/>
       <use xlink:href="#ArialMT-30" x="139.013672"/>
       <use xlink:href="#ArialMT-30" x="194.628906"/>
      </g>
     </g>
    </g>
    <g id="xtick_8">
     <g id="line2d_15">
      <path d="M 508.966008 512.64 
L 508.966008 69.12 
" clip-path="url(#pfd133c4a60)" style="fill: none; stroke: #cccccc; stroke-opacity: 0.3; stroke-width: 0.8; stroke-linecap: round"/>
     </g>
     <g id="line2d_16"/>
     <g id="text_8">
      <!-- 14:00 -->
      <g style="fill: #262626" transform="translate(501.947421 538.894475) rotate(-45) scale(0.1 -0.1)">
       <use xlink:href="#ArialMT-31"/>
       <use xlink:href="#ArialMT-34" x="55.615234"/>
       <use xlink:href="#ArialMT-3a" x="111.230469"/>
       <use xlink:href="#ArialMT-30" x="139.013672"/>
       <use xlink:href="#ArialMT-30" x="194.628906"/>
      </g>
     </g>
    </g>
    <g id="xtick_9">
     <g id="line2d_17">
      <path d="M 561.898814 512.64 
L 561.898814 69.12 
" clip-path="url(#pfd133c4a60)" style="fill: none; stroke: #cccccc; stroke-opacity: 0.3; stroke-width: 0.8; stroke-linecap: round"/>
     </g>
     <g id="line2d_18"/>
     <g id="text_9">
      <!-- 16:00 -->
      <g style="fill: #262626" transform="translate(554.880227 538.894475) rotate(-45) scale(0.1 -0.1)">
       <use xlink:href="#ArialMT-31"/>
       <use xlink:href="#ArialMT-36" x="55.615234"/>
       <use xlink:href="#ArialMT-3a" x="111.230469"/>
       <use xlink:href="#ArialMT-30" x="139.013672"/>
       <use xlink:href="#ArialMT-30" x="194.628906"/>
      </g>
     </g>
    </g>
    <g id="xtick_10">
     <g id="line2d_19">
      <path d="M 614.831621 512.64 
L 614.831621 69.12 
" clip-path="url(#pfd133c4a60)" style="fill: none; stroke: #cccccc; stroke-opacity: 0.3; stroke-width: 0.8; stroke-linecap: round"/>
     </g>
     <g id="line2d_20"/>
     <g id="text_10">
      <!-- 18:00 -->
      <g style="fill: #262626" transform="translate(607.813033 538.894475) rotate(-45) scale(0.1 -0.1)">
       <use xlink:href="#ArialMT-31"/>
       <use xlink:href="#ArialMT-38" x="55.615234"/>
       <use xlink:href="#ArialMT-3a" x="111.230469"/>
       <use xlink:href="#ArialMT-30" x="139.013672"/>
       <use xlink:href="#ArialMT-30" x="194.628906"/>
      </g>
     </g>
    </g>
    <g id="xtick_11">
     <g id="line2d_21">
      <path d="M 667.764427 512.64 
L 667.764427 69.12 
" clip-path="url(#pfd133c4a60)" style="fill: none; stroke: #cccccc; stroke-opacity: 0.3; stroke-width: 0.8; stroke-linecap: round"/>
     </g>
     <g id="line2d_22"/>
     <g id="text_11">
      <!-- 20:00 -->
      <g style="fill: #262626" transform="translate(660.74584 538.894475) rotate(-45) scale(0.1 -0.1)">
       <use xlink:href="#ArialMT-32"/>
       <use xlink:href="#ArialMT-30" x="55.615234"/>
       <use xlink:href="#ArialMT-3a" x="111.230469"/>
       <use xlink:href="#ArialMT-30" x="139.013672"/>
       <use xlink:href="#ArialMT-30" x="194.628906"/>
      </g>
     </g>
    </g>
    <g id="xtick_12">
     <g id="line2d_23">
      <path d="M 720.697233 512.64 
L 720.697233 69.12 
" clip-path="url(#pfd133c4a60)" style="fill: none; stroke: #cccccc; stroke-opacity: 0.3; stroke-width: 0.8; stroke-linecap: round"/>
     </g>
     <g id="line2d_24"/>
     <g id="text_12">
      <!-- 22:00 -->
      <g style="fill: #262626" transform="translate(713.678646 538.894475) rotate(-45) scale(0.1 -0.1)">
       <use xlink:href="#ArialMT-32"/>
       <use xlink:href="#ArialMT-32" x="55.615234"/>
       <use xlink:href="#ArialMT-3a" x="111.230469"/>
       <use xlink:href="#ArialMT-30" x="139.013672"/>
       <use xlink:href="#ArialMT-30" x="194.628906"/>
      </g>
     </g>
    </g>
    <g id="text_13">
     <!-- Hour of Day -->
     <g style="fill: #262626" transform="translate(410.789062 553.035475) scale(0.12 -0.12)">
      <defs>
       <path id="ArialMT-48" d="M 513 0 
L 513 4581 
L 1119 4581 
L 1119 2700 
L 3500 2700 
L 3500 4581 
L 4106 4581 
L 4106 0 
L 3500 0 
L 3500 2159 
L 1119 2159 
L 1119 0 
L 513 0 
z
" transform="scale(0.015625)"/>
       <path id="ArialMT-6f" d="M 213 1659 
Q 213 2581 725 3025 
Q 1153 3394 1769 3394 
Q 2453 3394 2887 2945 
Q 3322 2497 3322 1706 
Q 3322 1066 3130 698 
Q 2938 331 2570 128 
Q 2203 -75 1769 -75 
Q 1072 -75 642 372 
Q 213 819 213 1659 
z
M 791 1659 
Q 791 1022 1069 705 
Q 1347 388 1769 388 
Q 2188 388 2466 706 
Q 2744 1025 2744 1678 
Q 2744 2294 2464 2611 
Q 2184 2928 1769 2928 
Q 1347 2928 1069 2612 
Q 791 2297 791 1659 
z
" transform="scale(0.015625)"/>
       <path id="ArialMT-75" d="M 2597 0 
L 2597 488 
Q 2209 -75 1544 -75 
Q 1250 -75 995 37 
Q 741 150 617 320 
Q 494 491 444 738 
Q 409 903 409 1263 
L 409 3319 
L 972 3319 
L 972 1478 
Q 972 1038 1006 884 
Q 1059 663 1231 536 
Q 1403 409 1656 409 
Q 1909 409 2131 539 
Q 2353 669 2445 892 
Q 2538 1116 2538 1541 
L 2538 3319 
L 3100 3319 
L 3100 0 
L 2597 0 
z
" transform="scale(0.015625)"/>
       <path id="ArialMT-72" d="M 416 0 
L 416 3319 
L 922 3319 
L 922 2816 
Q 1116 3169 1280 3281 
Q 1444 3394 1641 3394 
Q 1925 3394 2219 3213 
L 2025 2691 
Q 1819 2813 1613 2813 
Q 1428 2813 1281 2702 
Q 1134 2591 1072 2394 
Q 978 2094 978 1738 
L 978 0 
L 416 0 
z
" transform="scale(0.015625)"/>
       <path id="ArialMT-20" transform="scale(0.015625)"/>
       <path id="ArialMT-66" d="M 556 0 
L 556 2881 
L 59 2881 
L 59 3319 
L 556 3319 
L 556 3672 
Q 556 4006 616 4169 
Q 697 4388 901 4523 
Q 1106 4659 1475 4659 
Q 1713 4659 2000 4603 
L 1916 4113 
Q 1741 4144 1584 4144 
Q 1328 4144 1222 4034 
Q 1116 3925 1116 3625 
L 1116 3319 
L 1763 3319 
L 1763 2881 
L 1116 2881 
L 1116 0 
L 556 0 
z
" transform="scale(0.015625)"/>
       <path id="ArialMT-44" d="M 494 0 
L 494 4581 
L 2072 4581 
Q 2606 4581 2888 4516 
Q 3281 4425 3559 4188 
Q 3922 3881 4101 3404 
Q 4281 2928 4281 2316 
Q 4281 1794 4159 1391 
Q 4038 988 3847 723 
Q 3656 459 3429 307 
Q 3203 156 2883 78 
Q 2563 0 2147 0 
L 494 0 
z
M 1100 541 
L 2078 541 
Q 2531 541 2789 625 
Q 3047 709 3200 863 
Q 3416 1078 3536 1442 
Q 3656 1806 3656 2325 
Q 3656 3044 3420 3430 
Q 3184 3816 2847 3947 
Q 2603 4041 2063 4041 
L 1100 4041 
L 1100 541 
z
" transform="scale(0.015625)"/>
       <path id="ArialMT-61" d="M 2588 409 
Q 2275 144 1986 34 
Q 1697 -75 1366 -75 
Q 819 -75 525 192 
Q 231 459 231 875 
Q 231 1119 342 1320 
Q 453 1522 633 1644 
Q 813 1766 1038 1828 
Q 1203 1872 1538 1913 
Q 2219 1994 2541 2106 
Q 2544 2222 2544 2253 
Q 2544 2597 2384 2738 
Q 2169 2928 1744 2928 
Q 1347 2928 1158 2789 
Q 969 2650 878 2297 
L 328 2372 
Q 403 2725 575 2942 
Q 747 3159 1072 3276 
Q 1397 3394 1825 3394 
Q 2250 3394 2515 3294 
Q 2781 3194 2906 3042 
Q 3031 2891 3081 2659 
Q 3109 2516 3109 2141 
L 3109 1391 
Q 3109 606 3145 398 
Q 3181 191 3288 0 
L 2700 0 
Q 2613 175 2588 409 
z
M 2541 1666 
Q 2234 1541 1622 1453 
Q 1275 1403 1131 1340 
Q 988 1278 909 1158 
Q 831 1038 831 891 
Q 831 666 1001 516 
Q 1172 366 1500 366 
Q 1825 366 2078 508 
Q 2331 650 2450 897 
Q 2541 1088 2541 1459 
L 2541 1666 
z
" transform="scale(0.015625)"/>
       <path id="ArialMT-79" d="M 397 -1278 
L 334 -750 
Q 519 -800 656 -800 
Q 844 -800 956 -737 
Q 1069 -675 1141 -563 
Q 1194 -478 1313 -144 
Q 1328 -97 1363 -6 
L 103 3319 
L 709 3319 
L 1400 1397 
Q 1534 1031 1641 628 
Q 1738 1016 1872 1384 
L 2581 3319 
L 3144 3319 
L 1881 -56 
Q 1678 -603 1566 -809 
Q 1416 -1088 1222 -1217 
Q 1028 -1347 759 -1347 
Q 597 -1347 397 -1278 
z
" transform="scale(0.015625)"/>
      </defs>
      <use xlink:href="#ArialMT-48"/>
      <use xlink:href="#ArialMT-6f" x="72.216797"/>
      <use xlink:href="#ArialMT-75" x="127.832031"/>
      <use xlink:href="#ArialMT-72" x="183.447266"/>
      <use xlink:href="#ArialMT-20" x="216.748047"/>
      <use xlink:href="#ArialMT-6f" x="244.53125"/>
      <use xlink:href="#ArialMT-66" x="300.146484"/>
      <use xlink:href="#ArialMT-20" x="327.929688"/>
      <use xlink:href="#ArialMT-44" x="355.712891"/>
      <use xlink:href="#ArialMT-61" x="427.929688"/>
      <use xlink:href="#ArialMT-79" x="483.544922"/>
     </g>
    </g>
   </g>
   <g id="matplotlib.axis_2">
    <g id="ytick_1">
     <g id="line2d_25">
      <path d="M 108 512.64 
L 777.6 512.64 
" clip-path="url(#pfd133c4a60)" style="fill: none; stroke: #cccccc; stroke-opacity: 0.3; stroke-width: 0.8; stroke-linecap: round"/>
     </g>
     <g id="line2d_26"/>
     <g id="text_14">
      <!-- −20 -->
      <g style="fill: #262626" transform="translate(87.5375 516.218906) scale(0.1 -0.1)">
       <defs>
        <path id="ArialMT-2212" d="M 3381 1997 
L 356 1997 
L 356 2522 
L 3381 2522 
L 3381 1997 
z
" transform="scale(0.015625)"/>
       </defs>
       <use xlink:href="#ArialMT-2212"/>
       <use xlink:href="#ArialMT-32" x="58.398438"/>
       <use xlink:href="#ArialMT-30" x="114.013672"/>
      </g>
     </g>
    </g>
    <g id="ytick_2">
     <g id="line2d_27">
      <path d="M 108 460.461176 
L 777.6 460.461176 
" clip-path="url(#pfd133c4a60)" style="fill: none; stroke: #cccccc; stroke-opacity: 0.3; stroke-width: 0.8; stroke-linecap: round"/>
     </g>
     <g id="line2d_28"/>
     <g id="text_15">
      <!-- 0 -->
      <g style="fill: #262626" transform="translate(98.939063 464.040083) scale(0.1 -0.1)">
       <use xlink:href="#ArialMT-30"/>
      </g>
     </g>
    </g>
    <g id="ytick_3">
     <g id="line2d_29">
      <path d="M 108 408.282353 
L 777.6 408.282353 
" clip-path="url(#pfd133c4a60)" style="fill: none; stroke: #cccccc; stroke-opacity: 0.3; stroke-width: 0.8; stroke-linecap: round"/>
     </g>
     <g id="line2d_30"/>
     <g id="text_16">
      <!-- 20 -->
      <g style="fill: #262626" transform="translate(93.378125 411.861259) scale(0.1 -0.1)">
       <use xlink:href="#ArialMT-32"/>
       <use xlink:href="#ArialMT-30" x="55.615234"/>
      </g>
     </g>
    </g>
    <g id="ytick_4">
     <g id="line2d_31">
      <path d="M 108 356.103529 
L 777.6 356.103529 
" clip-path="url(#pfd133c4a60)" style="fill: none; stroke: #cccccc; stroke-opacity: 0.3; stroke-width: 0.8; stroke-linecap: round"/>
     </g>
     <g id="line2d_32"/>
     <g id="text_17">
      <!-- 40 -->
      <g style="fill: #262626" transform="translate(93.378125 359.682436) scale(0.1 -0.1)">
       <use xlink:href="#ArialMT-34"/>
       <use xlink:href="#ArialMT-30" x="55.615234"/>
      </g>
     </g>
    </g>
    <g id="ytick_5">
     <g id="line2d_33">
      <path d="M 108 303.924706 
L 777.6 303.924706 
" clip-path="url(#pfd133c4a60)" style="fill: none; stroke: #cccccc; stroke-opacity: 0.3; stroke-width: 0.8; stroke-linecap: round"/>
     </g>
     <g id="line2d_34"/>
     <g id="text_18">
      <!-- 60 -->
      <g style="fill: #262626" transform="translate(93.378125 307.503612) scale(0.1 -0.1)">
       <use xlink:href="#ArialMT-36"/>
       <use xlink:href="#ArialMT-30" x="55.615234"/>
      </g>
     </g>
    </g>
    <g id="ytick_6">
     <g id="line2d_35">
      <path d="M 108 251.745882 
L 777.6 251.745882 
" clip-path="url(#pfd133c4a60)" style="fill: none; stroke: #cccccc; stroke-opacity: 0.3; stroke-width: 0.8; stroke-linecap: round"/>
     </g>
     <g id="line2d_36"/>
     <g id="text_19">
      <!-- 80 -->
      <g style="fill: #262626" transform="translate(93.378125 255.324789) scale(0.1 -0.1)">
       <use xlink:href="#ArialMT-38"/>
       <use xlink:href="#ArialMT-30" x="55.615234"/>
      </g>
     </g>
    </g>
    <g id="ytick_7">
     <g id="line2d_37">
      <path d="M 108 199.567059 
L 777.6 199.567059 
" clip-path="url(#pfd133c4a60)" style="fill: none; stroke: #cccccc; stroke-opacity: 0.3; stroke-width: 0.8; stroke-linecap: round"/>
     </g>
     <g id="line2d_38"/>
     <g id="text_20">
      <!-- 100 -->
      <g style="fill: #262626" transform="translate(87.817188 203.145965) scale(0.1 -0.1)">
       <use xlink:href="#ArialMT-31"/>
       <use xlink:href="#ArialMT-30" x="55.615234"/>
       <use xlink:href="#ArialMT-30" x="111.230469"/>
      </g>
     </g>
    </g>
    <g id="ytick_8">
     <g id="line2d_39">
      <path d="M 108 147.388235 
L 777.6 147.388235 
" clip-path="url(#pfd133c4a60)" style="fill: none; stroke: #cccccc; stroke-opacity: 0.3; stroke-width: 0.8; stroke-linecap: round"/>
     </g>
     <g id="line2d_40"/>
     <g id="text_21">
      <!-- 120 -->
      <g style="fill: #262626" transform="translate(87.817188 150.967142) scale(0.1 -0.1)">
       <use xlink:href="#ArialMT-31"/>
       <use xlink:href="#ArialMT-32" x="55.615234"/>
       <use xlink:href="#ArialMT-30" x="111.230469"/>
      </g>
     </g>
    </g>
    <g id="ytick_9">
     <g id="line2d_41">
      <path d="M 108 95.209412 
L 777.6 95.209412 
" clip-path="url(#pfd133c4a60)" style="fill: none; stroke: #cccccc; stroke-opacity: 0.3; stroke-width: 0.8; stroke-linecap: round"/>
     </g>
     <g id="line2d_42"/>
     <g id="text_22">
      <!-- 140 -->
      <g style="fill: #262626" transform="translate(87.817188 98.788318) scale(0.1 -0.1)">
       <use xlink:href="#ArialMT-31"/>
       <use xlink:href="#ArialMT-34" x="55.615234"/>
       <use xlink:href="#ArialMT-30" x="111.230469"/>
      </g>
     </g>
    </g>
    <g id="text_23">
     <!-- PM2.5 Concentration ($ \mu g / m^3$) -->
     <g style="fill: #262626" transform="translate(80.8975 371.52) rotate(-90) scale(0.12 -0.12)">
      <defs>
       <path id="ArialMT-50" d="M 494 0 
L 494 4581 
L 2222 4581 
Q 2678 4581 2919 4538 
Q 3256 4481 3484 4323 
Q 3713 4166 3852 3881 
Q 3991 3597 3991 3256 
Q 3991 2672 3619 2267 
Q 3247 1863 2275 1863 
L 1100 1863 
L 1100 0 
L 494 0 
z
M 1100 2403 
L 2284 2403 
Q 2872 2403 3119 2622 
Q 3366 2841 3366 3238 
Q 3366 3525 3220 3729 
Q 3075 3934 2838 4000 
Q 2684 4041 2272 4041 
L 1100 4041 
L 1100 2403 
z
" transform="scale(0.015625)"/>
       <path id="ArialMT-4d" d="M 475 0 
L 475 4581 
L 1388 4581 
L 2472 1338 
Q 2622 884 2691 659 
Q 2769 909 2934 1394 
L 4031 4581 
L 4847 4581 
L 4847 0 
L 4263 0 
L 4263 3834 
L 2931 0 
L 2384 0 
L 1059 3900 
L 1059 0 
L 475 0 
z
" transform="scale(0.015625)"/>
       <path id="ArialMT-2e" d="M 581 0 
L 581 641 
L 1222 641 
L 1222 0 
L 581 0 
z
" transform="scale(0.015625)"/>
       <path id="ArialMT-35" d="M 266 1200 
L 856 1250 
Q 922 819 1161 601 
Q 1400 384 1738 384 
Q 2144 384 2425 690 
Q 2706 997 2706 1503 
Q 2706 1984 2436 2262 
Q 2166 2541 1728 2541 
Q 1456 2541 1237 2417 
Q 1019 2294 894 2097 
L 366 2166 
L 809 4519 
L 3088 4519 
L 3088 3981 
L 1259 3981 
L 1013 2750 
Q 1425 3038 1878 3038 
Q 2478 3038 2890 2622 
Q 3303 2206 3303 1553 
Q 3303 931 2941 478 
Q 2500 -78 1738 -78 
Q 1113 -78 717 272 
Q 322 622 266 1200 
z
" transform="scale(0.015625)"/>
       <path id="ArialMT-43" d="M 3763 1606 
L 4369 1453 
Q 4178 706 3683 314 
Q 3188 -78 2472 -78 
Q 1731 -78 1267 223 
Q 803 525 561 1097 
Q 319 1669 319 2325 
Q 319 3041 592 3573 
Q 866 4106 1370 4382 
Q 1875 4659 2481 4659 
Q 3169 4659 3637 4309 
Q 4106 3959 4291 3325 
L 3694 3184 
Q 3534 3684 3231 3912 
Q 2928 4141 2469 4141 
Q 1941 4141 1586 3887 
Q 1231 3634 1087 3207 
Q 944 2781 944 2328 
Q 944 1744 1114 1308 
Q 1284 872 1643 656 
Q 2003 441 2422 441 
Q 2931 441 3284 734 
Q 3638 1028 3763 1606 
z
" transform="scale(0.015625)"/>
       <path id="ArialMT-6e" d="M 422 0 
L 422 3319 
L 928 3319 
L 928 2847 
Q 1294 3394 1984 3394 
Q 2284 3394 2536 3286 
Q 2788 3178 2913 3003 
Q 3038 2828 3088 2588 
Q 3119 2431 3119 2041 
L 3119 0 
L 2556 0 
L 2556 2019 
Q 2556 2363 2490 2533 
Q 2425 2703 2258 2804 
Q 2091 2906 1866 2906 
Q 1506 2906 1245 2678 
Q 984 2450 984 1813 
L 984 0 
L 422 0 
z
" transform="scale(0.015625)"/>
       <path id="ArialMT-63" d="M 2588 1216 
L 3141 1144 
Q 3050 572 2676 248 
Q 2303 -75 1759 -75 
Q 1078 -75 664 370 
Q 250 816 250 1647 
Q 250 2184 428 2587 
Q 606 2991 970 3192 
Q 1334 3394 1763 3394 
Q 2303 3394 2647 3120 
Q 2991 2847 3088 2344 
L 2541 2259 
Q 2463 2594 2264 2762 
Q 2066 2931 1784 2931 
Q 1359 2931 1093 2626 
Q 828 2322 828 1663 
Q 828 994 1084 691 
Q 1341 388 1753 388 
Q 2084 388 2306 591 
Q 2528 794 2588 1216 
z
" transform="scale(0.015625)"/>
       <path id="ArialMT-65" d="M 2694 1069 
L 3275 997 
Q 3138 488 2766 206 
Q 2394 -75 1816 -75 
Q 1088 -75 661 373 
Q 234 822 234 1631 
Q 234 2469 665 2931 
Q 1097 3394 1784 3394 
Q 2450 3394 2872 2941 
Q 3294 2488 3294 1666 
Q 3294 1616 3291 1516 
L 816 1516 
Q 847 969 1125 678 
Q 1403 388 1819 388 
Q 2128 388 2347 550 
Q 2566 713 2694 1069 
z
M 847 1978 
L 2700 1978 
Q 2663 2397 2488 2606 
Q 2219 2931 1791 2931 
Q 1403 2931 1139 2672 
Q 875 2413 847 1978 
z
" transform="scale(0.015625)"/>
       <path id="ArialMT-74" d="M 1650 503 
L 1731 6 
Q 1494 -44 1306 -44 
Q 1000 -44 831 53 
Q 663 150 594 308 
Q 525 466 525 972 
L 525 2881 
L 113 2881 
L 113 3319 
L 525 3319 
L 525 4141 
L 1084 4478 
L 1084 3319 
L 1650 3319 
L 1650 2881 
L 1084 2881 
L 1084 941 
Q 1084 700 1114 631 
Q 1144 563 1211 522 
Q 1278 481 1403 481 
Q 1497 481 1650 503 
z
" transform="scale(0.015625)"/>
       <path id="ArialMT-69" d="M 425 3934 
L 425 4581 
L 988 4581 
L 988 3934 
L 425 3934 
z
M 425 0 
L 425 3319 
L 988 3319 
L 988 0 
L 425 0 
z
" transform="scale(0.015625)"/>
       <path id="ArialMT-28" d="M 1497 -1347 
Q 1031 -759 709 28 
Q 388 816 388 1659 
Q 388 2403 628 3084 
Q 909 3875 1497 4659 
L 1900 4659 
Q 1522 4009 1400 3731 
Q 1209 3300 1100 2831 
Q 966 2247 966 1656 
Q 966 153 1900 -1347 
L 1497 -1347 
z
" transform="scale(0.015625)"/>
       <path id="DejaVuSans-Oblique-3bc" d="M -84 -1331 
L 856 3500 
L 1434 3500 
L 1009 1322 
Q 997 1256 987 1175 
Q 978 1094 978 1013 
Q 978 722 1161 565 
Q 1344 409 1684 409 
Q 2147 409 2431 671 
Q 2716 934 2816 1459 
L 3213 3500 
L 3788 3500 
L 3266 809 
Q 3253 750 3248 706 
Q 3244 663 3244 628 
Q 3244 531 3283 486 
Q 3322 441 3406 441 
Q 3438 441 3492 456 
Q 3547 472 3647 513 
L 3559 50 
Q 3422 -19 3297 -55 
Q 3172 -91 3053 -91 
Q 2847 -91 2730 40 
Q 2613 172 2613 403 
Q 2438 153 2195 31 
Q 1953 -91 1625 -91 
Q 1334 -91 1117 43 
Q 900 178 831 397 
L 494 -1331 
L -84 -1331 
z
" transform="scale(0.015625)"/>
       <path id="DejaVuSans-Oblique-67" d="M 3816 3500 
L 3219 434 
Q 3047 -456 2561 -893 
Q 2075 -1331 1253 -1331 
Q 950 -1331 690 -1286 
Q 431 -1241 206 -1147 
L 313 -588 
Q 525 -725 762 -790 
Q 1000 -856 1269 -856 
Q 1816 -856 2167 -557 
Q 2519 -259 2631 300 
L 2681 563 
Q 2441 288 2122 144 
Q 1803 0 1434 0 
Q 903 0 598 351 
Q 294 703 294 1319 
Q 294 1803 478 2267 
Q 663 2731 997 3091 
Q 1219 3328 1514 3456 
Q 1809 3584 2131 3584 
Q 2484 3584 2746 3420 
Q 3009 3256 3138 2956 
L 3238 3500 
L 3816 3500 
z
M 2950 2216 
Q 2950 2641 2750 2872 
Q 2550 3103 2181 3103 
Q 1953 3103 1747 3012 
Q 1541 2922 1394 2759 
Q 1156 2491 1023 2127 
Q 891 1763 891 1375 
Q 891 944 1092 712 
Q 1294 481 1672 481 
Q 2219 481 2584 976 
Q 2950 1472 2950 2216 
z
" transform="scale(0.015625)"/>
       <path id="DejaVuSans-2f" d="M 1625 4666 
L 2156 4666 
L 531 -594 
L 0 -594 
L 1625 4666 
z
" transform="scale(0.015625)"/>
       <path id="DejaVuSans-Oblique-6d" d="M 5747 2113 
L 5338 0 
L 4763 0 
L 5166 2094 
Q 5191 2228 5203 2325 
Q 5216 2422 5216 2491 
Q 5216 2772 5059 2928 
Q 4903 3084 4622 3084 
Q 4203 3084 3875 2770 
Q 3547 2456 3450 1953 
L 3066 0 
L 2491 0 
L 2900 2094 
Q 2925 2209 2937 2307 
Q 2950 2406 2950 2484 
Q 2950 2769 2794 2926 
Q 2638 3084 2363 3084 
Q 1938 3084 1609 2770 
Q 1281 2456 1184 1953 
L 800 0 
L 225 0 
L 909 3500 
L 1484 3500 
L 1375 2956 
Q 1609 3263 1923 3423 
Q 2238 3584 2597 3584 
Q 2978 3584 3223 3384 
Q 3469 3184 3519 2828 
Q 3781 3197 4126 3390 
Q 4472 3584 4856 3584 
Q 5306 3584 5551 3325 
Q 5797 3066 5797 2591 
Q 5797 2488 5784 2364 
Q 5772 2241 5747 2113 
z
" transform="scale(0.015625)"/>
       <path id="DejaVuSans-33" d="M 2597 2516 
Q 3050 2419 3304 2112 
Q 3559 1806 3559 1356 
Q 3559 666 3084 287 
Q 2609 -91 1734 -91 
Q 1441 -91 1130 -33 
Q 819 25 488 141 
L 488 750 
Q 750 597 1062 519 
Q 1375 441 1716 441 
Q 2309 441 2620 675 
Q 2931 909 2931 1356 
Q 2931 1769 2642 2001 
Q 2353 2234 1838 2234 
L 1294 2234 
L 1294 2753 
L 1863 2753 
Q 2328 2753 2575 2939 
Q 2822 3125 2822 3475 
Q 2822 3834 2567 4026 
Q 2313 4219 1838 4219 
Q 1578 4219 1281 4162 
Q 984 4106 628 3988 
L 628 4550 
Q 988 4650 1302 4700 
Q 1616 4750 1894 4750 
Q 2613 4750 3031 4423 
Q 3450 4097 3450 3541 
Q 3450 3153 3228 2886 
Q 3006 2619 2597 2516 
z
" transform="scale(0.015625)"/>
       <path id="ArialMT-29" d="M 791 -1347 
L 388 -1347 
Q 1322 153 1322 1656 
Q 1322 2244 1188 2822 
Q 1081 3291 891 3722 
Q 769 4003 388 4659 
L 791 4659 
Q 1378 3875 1659 3084 
Q 1900 2403 1900 1659 
Q 1900 816 1576 28 
Q 1253 -759 791 -1347 
z
" transform="scale(0.015625)"/>
      </defs>
      <use xlink:href="#ArialMT-50" transform="translate(0 0.765625)"/>
      <use xlink:href="#ArialMT-4d" transform="translate(66.699219 0.765625)"/>
      <use xlink:href="#ArialMT-32" transform="translate(150 0.765625)"/>
      <use xlink:href="#ArialMT-2e" transform="translate(205.615234 0.765625)"/>
      <use xlink:href="#ArialMT-35" transform="translate(233.398438 0.765625)"/>
      <use xlink:href="#ArialMT-20" transform="translate(289.013672 0.765625)"/>
      <use xlink:href="#ArialMT-43" transform="translate(316.796875 0.765625)"/>
      <use xlink:href="#ArialMT-6f" transform="translate(389.013672 0.765625)"/>
      <use xlink:href="#ArialMT-6e" transform="translate(444.628906 0.765625)"/>
      <use xlink:href="#ArialMT-63" transform="translate(500.244141 0.765625)"/>
      <use xlink:href="#ArialMT-65" transform="translate(550.244141 0.765625)"/>
      <use xlink:href="#ArialMT-6e" transform="translate(605.859375 0.765625)"/>
      <use xlink:href="#ArialMT-74" transform="translate(661.474609 0.765625)"/>
      <use xlink:href="#ArialMT-72" transform="translate(689.257812 0.765625)"/>
      <use xlink:href="#ArialMT-61" transform="translate(722.558594 0.765625)"/>
      <use xlink:href="#ArialMT-74" transform="translate(778.173828 0.765625)"/>
      <use xlink:href="#ArialMT-69" transform="translate(805.957031 0.765625)"/>
      <use xlink:href="#ArialMT-6f" transform="translate(828.173828 0.765625)"/>
      <use xlink:href="#ArialMT-6e" transform="translate(883.789062 0.765625)"/>
      <use xlink:href="#ArialMT-20" transform="translate(939.404297 0.765625)"/>
      <use xlink:href="#ArialMT-28" transform="translate(967.1875 0.765625)"/>
      <use xlink:href="#DejaVuSans-Oblique-3bc" transform="translate(1000.488281 0.765625)"/>
      <use xlink:href="#DejaVuSans-Oblique-67" transform="translate(1064.111328 0.765625)"/>
      <use xlink:href="#DejaVuSans-2f" transform="translate(1127.587891 0.765625)"/>
      <use xlink:href="#DejaVuSans-Oblique-6d" transform="translate(1161.279297 0.765625)"/>
      <use xlink:href="#DejaVuSans-33" transform="translate(1263.341302 39.046875) scale(0.7)"/>
      <use xlink:href="#ArialMT-29" transform="translate(1310.61181 0.765625)"/>
     </g>
    </g>
   </g>
   <g id="PolyCollection_1">
    <path d="M 138.436364 383.393244 
L 138.436364 411.448647 
L 164.902767 389.828989 
L 191.36917 397.109428 
L 217.835573 394.419849 
L 244.301976 369.175755 
L 270.768379 389.835629 
L 297.234783 397.352402 
L 323.701186 411.907763 
L 350.167589 411.469222 
L 376.633992 426.9996 
L 403.100395 456.732828 
L 429.566798 467.251136 
L 456.033202 465.012576 
L 482.499605 466.875983 
L 508.966008 465.935276 
L 535.432411 479.959068 
L 561.898814 464.814164 
L 588.365217 459.058005 
L 614.831621 443.752042 
L 641.298024 438.323117 
L 667.764427 411.285238 
L 694.23083 418.433359 
L 720.697233 358.732681 
L 747.163636 352.939919 
L 747.163636 331.742261 
L 747.163636 331.742261 
L 720.697233 305.583133 
L 694.23083 195.968146 
L 667.764427 225.145332 
L 641.298024 211.22465 
L 614.831621 207.45083 
L 588.365217 239.842059 
L 561.898814 262.041912 
L 535.432411 276.883482 
L 508.966008 291.428341 
L 482.499605 310.647411 
L 456.033202 306.299118 
L 429.566798 294.48346 
L 403.100395 270.493914 
L 376.633992 275.432341 
L 350.167589 185.023495 
L 323.701186 132.371378 
L 297.234783 159.523369 
L 270.768379 276.919036 
L 244.301976 353.987468 
L 217.835573 386.610523 
L 191.36917 387.961337 
L 164.902767 380.976908 
L 138.436364 383.393244 
z
" clip-path="url(#pfd133c4a60)" style="fill: #1f77b4; fill-opacity: 0.1"/>
   </g>
   <g id="PolyCollection_2">
    <path d="M 138.436364 418.82181 
L 138.436364 421.507638 
L 164.902767 420.806198 
L 244.301976 401.70764 
L 270.768379 372.070515 
L 297.234783 387.669513 
L 323.701186 405.769214 
L 350.167589 416.604011 
L 376.633992 417.792525 
L 403.100395 442.072984 
L 429.566798 457.398066 
L 456.033202 459.299227 
L 482.499605 455.51718 
L 508.966008 470.911223 
L 535.432411 473.125271 
L 561.898814 482.573303 
L 588.365217 455.699779 
L 614.831621 468.689379 
L 641.298024 424.875515 
L 667.764427 415.917357 
L 694.23083 441.27959 
L 720.697233 446.604608 
L 747.163636 433.222362 
L 747.163636 419.577192 
L 747.163636 419.577192 
L 720.697233 185.817042 
L 694.23083 227.528611 
L 667.764427 230.293169 
L 641.298024 242.016152 
L 614.831621 199.329956 
L 588.365217 298.544593 
L 561.898814 285.328992 
L 535.432411 336.852159 
L 508.966008 289.980176 
L 482.499605 292.706863 
L 456.033202 274.877532 
L 429.566798 265.264089 
L 403.100395 237.397104 
L 376.633992 235.988336 
L 350.167589 203.397753 
L 323.701186 180.90718 
L 297.234783 208.406925 
L 270.768379 230.950691 
L 244.301976 275.128514 
L 164.902767 420.621718 
L 138.436364 418.82181 
z
" clip-path="url(#pfd133c4a60)" style="fill: #ff7f0e; fill-opacity: 0.1"/>
   </g>
   <g id="PolyCollection_3">
    <path d="M 138.436364 419.941197 
L 138.436364 433.598577 
L 164.902767 448.222196 
L 191.36917 449.374134 
L 217.835573 446.049808 
L 244.301976 438.525256 
L 270.768379 399.492228 
L 297.234783 419.748449 
L 323.701186 424.127579 
L 350.167589 432.815341 
L 376.633992 445.656933 
L 403.100395 446.916821 
L 429.566798 466.065979 
L 456.033202 450.366046 
L 482.499605 440.540004 
L 508.966008 431.296993 
L 535.432411 427.900474 
L 561.898814 429.680332 
L 588.365217 428.934948 
L 614.831621 428.116935 
L 641.298024 426.574025 
L 667.764427 406.553872 
L 694.23083 425.780579 
L 720.697233 457.046314 
L 720.697233 160.578371 
L 720.697233 160.578371 
L 694.23083 225.570346 
L 667.764427 227.819842 
L 641.298024 253.889401 
L 614.831621 166.065824 
L 588.365217 201.603612 
L 561.898814 229.982066 
L 535.432411 221.577901 
L 508.966008 258.806468 
L 482.499605 277.095984 
L 456.033202 280.529797 
L 429.566798 226.362716 
L 403.100395 238.489355 
L 376.633992 224.720932 
L 350.167589 240.14099 
L 323.701186 202.328519 
L 297.234783 187.560484 
L 270.768379 279.794044 
L 244.301976 383.879638 
L 217.835573 443.641699 
L 191.36917 447.239557 
L 164.902767 445.226296 
L 138.436364 419.941197 
z
" clip-path="url(#pfd133c4a60)" style="fill: #2ca02c; fill-opacity: 0.1"/>
   </g>
   <g id="PolyCollection_4">
    <path d="M 138.436364 388.124713 
L 138.436364 390.925231 
L 244.301976 380.306522 
L 270.768379 427.143525 
L 297.234783 402.657296 
L 323.701186 398.694738 
L 350.167589 431.696797 
L 376.633992 426.987922 
L 403.100395 457.876881 
L 429.566798 454.286712 
L 456.033202 459.014707 
L 482.499605 456.543874 
L 508.966008 459.639171 
L 535.432411 461.373235 
L 561.898814 451.955284 
L 588.365217 452.788563 
L 614.831621 435.099353 
L 641.298024 433.477426 
L 667.764427 413.838355 
L 694.23083 410.731445 
L 720.697233 433.215468 
L 747.163636 410.684463 
L 747.163636 378.042841 
L 747.163636 378.042841 
L 720.697233 306.469862 
L 694.23083 264.752951 
L 667.764427 300.920902 
L 641.298024 235.081724 
L 614.831621 197.961813 
L 588.365217 250.987078 
L 561.898814 278.06881 
L 535.432411 275.594517 
L 508.966008 294.391543 
L 482.499605 309.6728 
L 456.033202 296.764334 
L 429.566798 275.662552 
L 403.100395 269.737835 
L 376.633992 222.997483 
L 350.167589 184.227368 
L 323.701186 185.732161 
L 297.234783 162.9888 
L 270.768379 249.924757 
L 244.301976 374.056057 
L 138.436364 388.124713 
z
" clip-path="url(#pfd133c4a60)" style="fill: #d62728; fill-opacity: 0.1"/>
   </g>
   <g id="PolyCollection_5">
    <path d="M 138.436364 397.267609 
L 138.436364 445.186674 
L 164.902767 389.95151 
L 191.36917 397.218219 
L 217.835573 400.274416 
L 244.301976 358.822228 
L 270.768379 385.942904 
L 297.234783 390.09755 
L 323.701186 383.813458 
L 350.167589 412.158759 
L 376.633992 435.360299 
L 403.100395 457.642184 
L 429.566798 459.833571 
L 456.033202 452.237736 
L 482.499605 459.052787 
L 508.966008 468.645461 
L 535.432411 464.958626 
L 561.898814 444.972922 
L 588.365217 428.915818 
L 614.831621 425.246425 
L 641.298024 409.834226 
L 667.764427 385.446311 
L 694.23083 391.201873 
L 720.697233 451.557983 
L 747.163636 139.274186 
L 747.163636 -405.062271 
L 747.163636 -405.062271 
L 720.697233 -66.671026 
L 694.23083 181.165955 
L 667.764427 215.826054 
L 641.298024 168.679415 
L 614.831621 153.670987 
L 588.365217 221.025177 
L 561.898814 255.885064 
L 535.432411 237.865391 
L 508.966008 255.912365 
L 482.499605 301.159609 
L 456.033202 307.292114 
L 429.566798 291.484123 
L 403.100395 273.322059 
L 376.633992 244.814598 
L 350.167589 191.775642 
L 323.701186 154.61101 
L 297.234783 183.65595 
L 270.768379 191.925003 
L 244.301976 254.937146 
L 217.835573 394.336865 
L 191.36917 392.280038 
L 164.902767 383.390225 
L 138.436364 397.267609 
z
" clip-path="url(#pfd133c4a60)" style="fill: #9467bd; fill-opacity: 0.1"/>
   </g>
   <g id="PolyCollection_6">
    <path d="M 270.768379 210.094319 
L 270.768379 376.987521 
L 297.234783 375.701865 
L 323.701186 395.795141 
L 350.167589 426.219166 
L 376.633992 448.156116 
L 403.100395 453.627635 
L 429.566798 471.427924 
L 456.033202 456.270648 
L 482.499605 479.037003 
L 508.966008 471.475332 
L 535.432411 476.020365 
L 561.898814 468.169123 
L 588.365217 458.609982 
L 614.831621 448.639323 
L 641.298024 408.601581 
L 667.764427 403.177261 
L 694.23083 416.368968 
L 720.697233 493.369407 
L 747.163636 427.756748 
L 747.163636 425.62065 
L 747.163636 425.62065 
L 720.697233 86.087708 
L 694.23083 226.472503 
L 667.764427 225.692605 
L 641.298024 217.798675 
L 614.831621 229.218907 
L 588.365217 270.414436 
L 561.898814 278.838905 
L 535.432411 284.919275 
L 508.966008 301.510282 
L 482.499605 293.499218 
L 456.033202 307.536499 
L 429.566798 270.39718 
L 403.100395 284.683778 
L 376.633992 234.637259 
L 350.167589 211.887665 
L 323.701186 193.802245 
L 297.234783 228.679798 
L 270.768379 210.094319 
z
" clip-path="url(#pfd133c4a60)" style="fill: #8c564b; fill-opacity: 0.1"/>
   </g>
   <g id="PolyCollection_7">
    <path d="M 138.436364 426.600775 
L 138.436364 428.653207 
L 270.768379 366.720815 
L 297.234783 349.912072 
L 323.701186 426.467211 
L 350.167589 427.649578 
L 376.633992 454.583211 
L 403.100395 442.824814 
L 429.566798 461.756175 
L 456.033202 453.946601 
L 482.499605 468.518872 
L 508.966008 475.618099 
L 535.432411 459.960282 
L 561.898814 448.509475 
L 588.365217 457.576584 
L 614.831621 431.459063 
L 641.298024 409.943941 
L 667.764427 400.303576 
L 694.23083 401.498174 
L 720.697233 458.38642 
L 747.163636 440.843683 
L 747.163636 385.910023 
L 747.163636 385.910023 
L 720.697233 334.76043 
L 694.23083 240.717299 
L 667.764427 226.384341 
L 641.298024 189.751166 
L 614.831621 213.509742 
L 588.365217 303.60559 
L 561.898814 313.192221 
L 535.432411 301.165581 
L 508.966008 289.833629 
L 482.499605 288.081037 
L 456.033202 318.651176 
L 429.566798 330.722662 
L 403.100395 339.301135 
L 376.633992 294.186122 
L 350.167589 276.370159 
L 323.701186 256.308566 
L 297.234783 216.957528 
L 270.768379 282.560431 
L 138.436364 426.600775 
z
" clip-path="url(#pfd133c4a60)" style="fill: #e377c2; fill-opacity: 0.1"/>
   </g>
   <g id="line2d_43">
    <path d="M 138.436364 397.420945 
L 164.902767 385.402949 
L 191.36917 392.535382 
L 217.835573 390.515186 
L 244.301976 361.581611 
L 270.768379 333.377333 
L 297.234783 278.437886 
L 323.701186 272.13957 
L 350.167589 298.246359 
L 376.633992 351.215971 
L 403.100395 363.613371 
L 429.566798 380.867298 
L 456.033202 385.655847 
L 482.499605 388.761697 
L 508.966008 378.681809 
L 535.432411 378.421275 
L 561.898814 363.428038 
L 588.365217 349.450032 
L 614.831621 325.601436 
L 641.298024 324.773883 
L 667.764427 318.215285 
L 694.23083 307.200753 
L 720.697233 332.157907 
L 747.163636 342.34109 
" clip-path="url(#pfd133c4a60)" style="fill: none; stroke: #1f77b4; stroke-width: 1.5; stroke-linecap: round"/>
   </g>
   <g id="line2d_44">
    <path d="M 138.436364 420.164724 
L 164.902767 420.713958 
L 244.301976 338.418077 
L 270.768379 301.510603 
L 297.234783 298.038219 
L 323.701186 293.338197 
L 350.167589 310.000882 
L 376.633992 326.890431 
L 403.100395 339.735044 
L 429.566798 361.331078 
L 456.033202 367.088379 
L 482.499605 374.112022 
L 508.966008 380.4457 
L 535.432411 404.988715 
L 561.898814 383.951148 
L 588.365217 377.122186 
L 614.831621 334.009668 
L 641.298024 333.445833 
L 667.764427 323.105263 
L 694.23083 334.404101 
L 720.697233 316.210825 
L 747.163636 426.399777 
" clip-path="url(#pfd133c4a60)" style="fill: none; stroke: #ff7f0e; stroke-width: 1.5; stroke-linecap: round"/>
   </g>
   <g id="line2d_45">
    <path d="M 138.436364 426.769887 
L 164.902767 446.724246 
L 191.36917 448.306845 
L 217.835573 444.845753 
L 244.301976 411.202447 
L 270.768379 339.643136 
L 297.234783 303.654466 
L 323.701186 313.228049 
L 350.167589 336.478166 
L 376.633992 335.188933 
L 403.100395 342.703088 
L 429.566798 346.214348 
L 456.033202 365.447922 
L 482.499605 358.817994 
L 508.966008 345.051731 
L 535.432411 324.739188 
L 561.898814 329.831199 
L 588.365217 315.26928 
L 614.831621 297.091379 
L 641.298024 340.231713 
L 667.764427 317.186857 
L 694.23083 325.675462 
L 720.697233 308.812343 
" clip-path="url(#pfd133c4a60)" style="fill: none; stroke: #2ca02c; stroke-width: 1.5; stroke-linecap: round"/>
   </g>
   <g id="line2d_46">
    <path d="M 138.436364 389.524972 
L 244.301976 377.181289 
L 270.768379 338.534141 
L 297.234783 282.823048 
L 323.701186 292.21345 
L 350.167589 307.962082 
L 376.633992 324.992703 
L 403.100395 363.807358 
L 429.566798 364.974632 
L 456.033202 377.88952 
L 482.499605 383.108337 
L 508.966008 377.015357 
L 535.432411 368.483876 
L 561.898814 365.012047 
L 588.365217 351.88782 
L 614.831621 316.530583 
L 641.298024 334.279575 
L 667.764427 357.379629 
L 694.23083 337.742198 
L 720.697233 369.842665 
L 747.163636 394.363652 
" clip-path="url(#pfd133c4a60)" style="fill: none; stroke: #d62728; stroke-width: 1.5; stroke-linecap: round"/>
   </g>
   <g id="line2d_47">
    <path d="M 138.436364 421.227142 
L 164.902767 386.670867 
L 191.36917 394.749129 
L 217.835573 397.305641 
L 244.301976 306.879687 
L 270.768379 288.933953 
L 297.234783 286.87675 
L 323.701186 269.212234 
L 350.167589 301.967201 
L 376.633992 340.087449 
L 403.100395 365.482122 
L 429.566798 375.658847 
L 456.033202 379.764925 
L 482.499605 380.106198 
L 508.966008 362.278913 
L 535.432411 351.412008 
L 561.898814 350.428993 
L 588.365217 324.970498 
L 614.831621 289.458706 
L 641.298024 289.25682 
L 667.764427 300.636183 
L 694.23083 286.183914 
L 720.697233 192.443479 
L 736.433977 -1 
" clip-path="url(#pfd133c4a60)" style="fill: none; stroke: #9467bd; stroke-width: 1.5; stroke-linecap: round"/>
   </g>
   <g id="line2d_48">
    <path d="M 270.768379 293.54092 
L 297.234783 302.190831 
L 323.701186 294.798693 
L 350.167589 319.053416 
L 376.633992 341.396687 
L 403.100395 369.155706 
L 429.566798 370.912552 
L 456.033202 381.903573 
L 482.499605 386.268111 
L 508.966008 386.492807 
L 535.432411 380.46982 
L 561.898814 373.504014 
L 588.365217 364.512209 
L 614.831621 338.929115 
L 641.298024 313.200128 
L 667.764427 314.434933 
L 694.23083 321.420735 
L 720.697233 289.728557 
L 747.163636 426.688699 
" clip-path="url(#pfd133c4a60)" style="fill: none; stroke: #8c564b; stroke-width: 1.5; stroke-linecap: round"/>
   </g>
   <g id="line2d_49">
    <path d="M 138.436364 427.626991 
L 270.768379 324.640623 
L 297.234783 283.4348 
L 323.701186 341.387889 
L 350.167589 352.009869 
L 376.633992 374.384666 
L 403.100395 391.062974 
L 429.566798 396.239419 
L 456.033202 386.298888 
L 482.499605 378.299954 
L 508.966008 382.725864 
L 535.432411 380.562932 
L 561.898814 380.850848 
L 588.365217 380.591087 
L 614.831621 322.484403 
L 641.298024 299.847553 
L 667.764427 313.343958 
L 694.23083 321.107736 
L 720.697233 396.573425 
L 747.163636 413.376853 
" clip-path="url(#pfd133c4a60)" style="fill: none; stroke: #e377c2; stroke-width: 1.5; stroke-linecap: round"/>
   </g>
   <g id="patch_3">
    <path d="M 108 512.64 
L 108 69.12 
" style="fill: none; stroke: #262626; stroke-width: 1.25; stroke-linejoin: miter; stroke-linecap: square"/>
   </g>
   <g id="patch_4">
    <path d="M 777.6 512.64 
L 777.6 69.12 
" style="fill: none; stroke: #262626; stroke-width: 1.25; stroke-linejoin: miter; stroke-linecap: square"/>
   </g>
   <g id="patch_5">
    <path d="M 108 512.64 
L 777.6 512.64 
" style="fill: none; stroke: #262626; stroke-width: 1.25; stroke-linejoin: miter; stroke-linecap: square"/>
   </g>
   <g id="patch_6">
    <path d="M 108 69.12 
L 777.6 69.12 
" style="fill: none; stroke: #262626; stroke-width: 1.25; stroke-linejoin: miter; stroke-linecap: square"/>
   </g>
   <g id="text_24">
    <!-- Kigali: Hourly PM2.5 Concentrations in September 2021 -->
    <g style="fill: #262626" transform="translate(269.273281 63.12) scale(0.14 -0.14)">
     <defs>
      <path id="ArialMT-4b" d="M 469 0 
L 469 4581 
L 1075 4581 
L 1075 2309 
L 3350 4581 
L 4172 4581 
L 2250 2725 
L 4256 0 
L 3456 0 
L 1825 2319 
L 1075 1588 
L 1075 0 
L 469 0 
z
" transform="scale(0.015625)"/>
      <path id="ArialMT-67" d="M 319 -275 
L 866 -356 
Q 900 -609 1056 -725 
Q 1266 -881 1628 -881 
Q 2019 -881 2231 -725 
Q 2444 -569 2519 -288 
Q 2563 -116 2559 434 
Q 2191 0 1641 0 
Q 956 0 581 494 
Q 206 988 206 1678 
Q 206 2153 378 2554 
Q 550 2956 876 3175 
Q 1203 3394 1644 3394 
Q 2231 3394 2613 2919 
L 2613 3319 
L 3131 3319 
L 3131 450 
Q 3131 -325 2973 -648 
Q 2816 -972 2473 -1159 
Q 2131 -1347 1631 -1347 
Q 1038 -1347 672 -1080 
Q 306 -813 319 -275 
z
M 784 1719 
Q 784 1066 1043 766 
Q 1303 466 1694 466 
Q 2081 466 2343 764 
Q 2606 1063 2606 1700 
Q 2606 2309 2336 2618 
Q 2066 2928 1684 2928 
Q 1309 2928 1046 2623 
Q 784 2319 784 1719 
z
" transform="scale(0.015625)"/>
      <path id="ArialMT-6c" d="M 409 0 
L 409 4581 
L 972 4581 
L 972 0 
L 409 0 
z
" transform="scale(0.015625)"/>
      <path id="ArialMT-73" d="M 197 991 
L 753 1078 
Q 800 744 1014 566 
Q 1228 388 1613 388 
Q 2000 388 2187 545 
Q 2375 703 2375 916 
Q 2375 1106 2209 1216 
Q 2094 1291 1634 1406 
Q 1016 1563 777 1677 
Q 538 1791 414 1992 
Q 291 2194 291 2438 
Q 291 2659 392 2848 
Q 494 3038 669 3163 
Q 800 3259 1026 3326 
Q 1253 3394 1513 3394 
Q 1903 3394 2198 3281 
Q 2494 3169 2634 2976 
Q 2775 2784 2828 2463 
L 2278 2388 
Q 2241 2644 2061 2787 
Q 1881 2931 1553 2931 
Q 1166 2931 1000 2803 
Q 834 2675 834 2503 
Q 834 2394 903 2306 
Q 972 2216 1119 2156 
Q 1203 2125 1616 2013 
Q 2213 1853 2448 1751 
Q 2684 1650 2818 1456 
Q 2953 1263 2953 975 
Q 2953 694 2789 445 
Q 2625 197 2315 61 
Q 2006 -75 1616 -75 
Q 969 -75 630 194 
Q 291 463 197 991 
z
" transform="scale(0.015625)"/>
      <path id="ArialMT-53" d="M 288 1472 
L 859 1522 
Q 900 1178 1048 958 
Q 1197 738 1509 602 
Q 1822 466 2213 466 
Q 2559 466 2825 569 
Q 3091 672 3220 851 
Q 3350 1031 3350 1244 
Q 3350 1459 3225 1620 
Q 3100 1781 2813 1891 
Q 2628 1963 1997 2114 
Q 1366 2266 1113 2400 
Q 784 2572 623 2826 
Q 463 3081 463 3397 
Q 463 3744 659 4045 
Q 856 4347 1234 4503 
Q 1613 4659 2075 4659 
Q 2584 4659 2973 4495 
Q 3363 4331 3572 4012 
Q 3781 3694 3797 3291 
L 3216 3247 
Q 3169 3681 2898 3903 
Q 2628 4125 2100 4125 
Q 1550 4125 1298 3923 
Q 1047 3722 1047 3438 
Q 1047 3191 1225 3031 
Q 1400 2872 2139 2705 
Q 2878 2538 3153 2413 
Q 3553 2228 3743 1945 
Q 3934 1663 3934 1294 
Q 3934 928 3725 604 
Q 3516 281 3123 101 
Q 2731 -78 2241 -78 
Q 1619 -78 1198 103 
Q 778 284 539 648 
Q 300 1013 288 1472 
z
" transform="scale(0.015625)"/>
      <path id="ArialMT-70" d="M 422 -1272 
L 422 3319 
L 934 3319 
L 934 2888 
Q 1116 3141 1344 3267 
Q 1572 3394 1897 3394 
Q 2322 3394 2647 3175 
Q 2972 2956 3137 2557 
Q 3303 2159 3303 1684 
Q 3303 1175 3120 767 
Q 2938 359 2589 142 
Q 2241 -75 1856 -75 
Q 1575 -75 1351 44 
Q 1128 163 984 344 
L 984 -1272 
L 422 -1272 
z
M 931 1641 
Q 931 1000 1190 694 
Q 1450 388 1819 388 
Q 2194 388 2461 705 
Q 2728 1022 2728 1688 
Q 2728 2322 2467 2637 
Q 2206 2953 1844 2953 
Q 1484 2953 1207 2617 
Q 931 2281 931 1641 
z
" transform="scale(0.015625)"/>
      <path id="ArialMT-6d" d="M 422 0 
L 422 3319 
L 925 3319 
L 925 2853 
Q 1081 3097 1340 3245 
Q 1600 3394 1931 3394 
Q 2300 3394 2536 3241 
Q 2772 3088 2869 2813 
Q 3263 3394 3894 3394 
Q 4388 3394 4653 3120 
Q 4919 2847 4919 2278 
L 4919 0 
L 4359 0 
L 4359 2091 
Q 4359 2428 4304 2576 
Q 4250 2725 4106 2815 
Q 3963 2906 3769 2906 
Q 3419 2906 3187 2673 
Q 2956 2441 2956 1928 
L 2956 0 
L 2394 0 
L 2394 2156 
Q 2394 2531 2256 2718 
Q 2119 2906 1806 2906 
Q 1569 2906 1367 2781 
Q 1166 2656 1075 2415 
Q 984 2175 984 1722 
L 984 0 
L 422 0 
z
" transform="scale(0.015625)"/>
      <path id="ArialMT-62" d="M 941 0 
L 419 0 
L 419 4581 
L 981 4581 
L 981 2947 
Q 1338 3394 1891 3394 
Q 2197 3394 2470 3270 
Q 2744 3147 2920 2923 
Q 3097 2700 3197 2384 
Q 3297 2069 3297 1709 
Q 3297 856 2875 390 
Q 2453 -75 1863 -75 
Q 1275 -75 941 416 
L 941 0 
z
M 934 1684 
Q 934 1088 1097 822 
Q 1363 388 1816 388 
Q 2184 388 2453 708 
Q 2722 1028 2722 1663 
Q 2722 2313 2464 2622 
Q 2206 2931 1841 2931 
Q 1472 2931 1203 2611 
Q 934 2291 934 1684 
z
" transform="scale(0.015625)"/>
     </defs>
     <use xlink:href="#ArialMT-4b"/>
     <use xlink:href="#ArialMT-69" x="66.699219"/>
     <use xlink:href="#ArialMT-67" x="88.916016"/>
     <use xlink:href="#ArialMT-61" x="144.53125"/>
     <use xlink:href="#ArialMT-6c" x="200.146484"/>
     <use xlink:href="#ArialMT-69" x="222.363281"/>
     <use xlink:href="#ArialMT-3a" x="244.580078"/>
     <use xlink:href="#ArialMT-20" x="272.363281"/>
     <use xlink:href="#ArialMT-48" x="300.146484"/>
     <use xlink:href="#ArialMT-6f" x="372.363281"/>
     <use xlink:href="#ArialMT-75" x="427.978516"/>
     <use xlink:href="#ArialMT-72" x="483.59375"/>
     <use xlink:href="#ArialMT-6c" x="516.894531"/>
     <use xlink:href="#ArialMT-79" x="539.111328"/>
     <use xlink:href="#ArialMT-20" x="589.111328"/>
     <use xlink:href="#ArialMT-50" x="616.894531"/>
     <use xlink:href="#ArialMT-4d" x="683.59375"/>
     <use xlink:href="#ArialMT-32" x="766.894531"/>
     <use xlink:href="#ArialMT-2e" x="822.509766"/>
     <use xlink:href="#ArialMT-35" x="850.292969"/>
     <use xlink:href="#ArialMT-20" x="905.908203"/>
     <use xlink:href="#ArialMT-43" x="933.691406"/>
     <use xlink:href="#ArialMT-6f" x="1005.908203"/>
     <use xlink:href="#ArialMT-6e" x="1061.523438"/>
     <use xlink:href="#ArialMT-63" x="1117.138672"/>
     <use xlink:href="#ArialMT-65" x="1167.138672"/>
     <use xlink:href="#ArialMT-6e" x="1222.753906"/>
     <use xlink:href="#ArialMT-74" x="1278.369141"/>
     <use xlink:href="#ArialMT-72" x="1306.152344"/>
     <use xlink:href="#ArialMT-61" x="1339.453125"/>
     <use xlink:href="#ArialMT-74" x="1395.068359"/>
     <use xlink:href="#ArialMT-69" x="1422.851562"/>
     <use xlink:href="#ArialMT-6f" x="1445.068359"/>
     <use xlink:href="#ArialMT-6e" x="1500.683594"/>
     <use xlink:href="#ArialMT-73" x="1556.298828"/>
     <use xlink:href="#ArialMT-20" x="1606.298828"/>
     <use xlink:href="#ArialMT-69" x="1634.082031"/>
     <use xlink:href="#ArialMT-6e" x="1656.298828"/>
     <use xlink:href="#ArialMT-20" x="1711.914062"/>
     <use xlink:href="#ArialMT-53" x="1739.697266"/>
     <use xlink:href="#ArialMT-65" x="1806.396484"/>
     <use xlink:href="#ArialMT-70" x="1862.011719"/>
     <use xlink:href="#ArialMT-74" x="1917.626953"/>
     <use xlink:href="#ArialMT-65" x="1945.410156"/>
     <use xlink:href="#ArialMT-6d" x="2001.025391"/>
     <use xlink:href="#ArialMT-62" x="2084.326172"/>
     <use xlink:href="#ArialMT-65" x="2139.941406"/>
     <use xlink:href="#ArialMT-72" x="2195.556641"/>
     <use xlink:href="#ArialMT-20" x="2228.857422"/>
     <use xlink:href="#ArialMT-32" x="2256.640625"/>
     <use xlink:href="#ArialMT-30" x="2312.255859"/>
     <use xlink:href="#ArialMT-32" x="2367.871094"/>
     <use xlink:href="#ArialMT-31" x="2423.486328"/>
    </g>
   </g>
   <g id="legend_1">
    <g id="text_25">
     <!-- Day of Week -->
     <g style="fill: #262626" transform="translate(128.782813 85.399688) scale(0.1 -0.1)">
      <defs>
       <path id="ArialMT-57" d="M 1294 0 
L 78 4581 
L 700 4581 
L 1397 1578 
Q 1509 1106 1591 641 
Q 1766 1375 1797 1488 
L 2669 4581 
L 3400 4581 
L 4056 2263 
Q 4303 1400 4413 641 
Q 4500 1075 4641 1638 
L 5359 4581 
L 5969 4581 
L 4713 0 
L 4128 0 
L 3163 3491 
Q 3041 3928 3019 4028 
Q 2947 3713 2884 3491 
L 1913 0 
L 1294 0 
z
" transform="scale(0.015625)"/>
       <path id="ArialMT-6b" d="M 425 0 
L 425 4581 
L 988 4581 
L 988 1969 
L 2319 3319 
L 3047 3319 
L 1778 2088 
L 3175 0 
L 2481 0 
L 1384 1697 
L 988 1316 
L 988 0 
L 425 0 
z
" transform="scale(0.015625)"/>
      </defs>
      <use xlink:href="#ArialMT-44"/>
      <use xlink:href="#ArialMT-61" x="72.216797"/>
      <use xlink:href="#ArialMT-79" x="127.832031"/>
      <use xlink:href="#ArialMT-20" x="177.832031"/>
      <use xlink:href="#ArialMT-6f" x="205.615234"/>
      <use xlink:href="#ArialMT-66" x="261.230469"/>
      <use xlink:href="#ArialMT-20" x="289.013672"/>
      <use xlink:href="#ArialMT-57" x="316.796875"/>
      <use xlink:href="#ArialMT-65" x="409.431641"/>
      <use xlink:href="#ArialMT-65" x="465.046875"/>
      <use xlink:href="#ArialMT-6b" x="520.662109"/>
     </g>
    </g>
    <g id="line2d_50">
     <path d="M 117 96.162188 
L 127 96.162188 
L 137 96.162188 
" style="fill: none; stroke: #1f77b4; stroke-width: 1.5; stroke-linecap: round"/>
    </g>
    <g id="text_26">
     <!-- Monday -->
     <g style="fill: #262626" transform="translate(145 99.662188) scale(0.1 -0.1)">
      <defs>
       <path id="ArialMT-64" d="M 2575 0 
L 2575 419 
Q 2259 -75 1647 -75 
Q 1250 -75 917 144 
Q 584 363 401 755 
Q 219 1147 219 1656 
Q 219 2153 384 2558 
Q 550 2963 881 3178 
Q 1213 3394 1622 3394 
Q 1922 3394 2156 3267 
Q 2391 3141 2538 2938 
L 2538 4581 
L 3097 4581 
L 3097 0 
L 2575 0 
z
M 797 1656 
Q 797 1019 1065 703 
Q 1334 388 1700 388 
Q 2069 388 2326 689 
Q 2584 991 2584 1609 
Q 2584 2291 2321 2609 
Q 2059 2928 1675 2928 
Q 1300 2928 1048 2622 
Q 797 2316 797 1656 
z
" transform="scale(0.015625)"/>
      </defs>
      <use xlink:href="#ArialMT-4d"/>
      <use xlink:href="#ArialMT-6f" x="83.300781"/>
      <use xlink:href="#ArialMT-6e" x="138.916016"/>
      <use xlink:href="#ArialMT-64" x="194.53125"/>
      <use xlink:href="#ArialMT-61" x="250.146484"/>
      <use xlink:href="#ArialMT-79" x="305.761719"/>
     </g>
    </g>
    <g id="line2d_51">
     <path d="M 117 110.424688 
L 127 110.424688 
L 137 110.424688 
" style="fill: none; stroke: #ff7f0e; stroke-width: 1.5; stroke-linecap: round"/>
    </g>
    <g id="text_27">
     <!-- Tuesday -->
     <g style="fill: #262626" transform="translate(145 113.924688) scale(0.1 -0.1)">
      <defs>
       <path id="ArialMT-54" d="M 1659 0 
L 1659 4041 
L 150 4041 
L 150 4581 
L 3781 4581 
L 3781 4041 
L 2266 4041 
L 2266 0 
L 1659 0 
z
" transform="scale(0.015625)"/>
      </defs>
      <use xlink:href="#ArialMT-54"/>
      <use xlink:href="#ArialMT-75" x="57.333984"/>
      <use xlink:href="#ArialMT-65" x="112.949219"/>
      <use xlink:href="#ArialMT-73" x="168.564453"/>
      <use xlink:href="#ArialMT-64" x="218.564453"/>
      <use xlink:href="#ArialMT-61" x="274.179688"/>
      <use xlink:href="#ArialMT-79" x="329.794922"/>
     </g>
    </g>
    <g id="line2d_52">
     <path d="M 117 124.687188 
L 127 124.687188 
L 137 124.687188 
" style="fill: none; stroke: #2ca02c; stroke-width: 1.5; stroke-linecap: round"/>
    </g>
    <g id="text_28">
     <!-- Wednesday -->
     <g style="fill: #262626" transform="translate(145 128.187188) scale(0.1 -0.1)">
      <use xlink:href="#ArialMT-57"/>
      <use xlink:href="#ArialMT-65" x="92.634766"/>
      <use xlink:href="#ArialMT-64" x="148.25"/>
      <use xlink:href="#ArialMT-6e" x="203.865234"/>
      <use xlink:href="#ArialMT-65" x="259.480469"/>
      <use xlink:href="#ArialMT-73" x="315.095703"/>
      <use xlink:href="#ArialMT-64" x="365.095703"/>
      <use xlink:href="#ArialMT-61" x="420.710938"/>
      <use xlink:href="#ArialMT-79" x="476.326172"/>
     </g>
    </g>
    <g id="line2d_53">
     <path d="M 117 138.949688 
L 127 138.949688 
L 137 138.949688 
" style="fill: none; stroke: #d62728; stroke-width: 1.5; stroke-linecap: round"/>
    </g>
    <g id="text_29">
     <!-- Thursday -->
     <g style="fill: #262626" transform="translate(145 142.449688) scale(0.1 -0.1)">
      <defs>
       <path id="ArialMT-68" d="M 422 0 
L 422 4581 
L 984 4581 
L 984 2938 
Q 1378 3394 1978 3394 
Q 2347 3394 2619 3248 
Q 2891 3103 3008 2847 
Q 3125 2591 3125 2103 
L 3125 0 
L 2563 0 
L 2563 2103 
Q 2563 2525 2380 2717 
Q 2197 2909 1863 2909 
Q 1613 2909 1392 2779 
Q 1172 2650 1078 2428 
Q 984 2206 984 1816 
L 984 0 
L 422 0 
z
" transform="scale(0.015625)"/>
      </defs>
      <use xlink:href="#ArialMT-54"/>
      <use xlink:href="#ArialMT-68" x="61.083984"/>
      <use xlink:href="#ArialMT-75" x="116.699219"/>
      <use xlink:href="#ArialMT-72" x="172.314453"/>
      <use xlink:href="#ArialMT-73" x="205.615234"/>
      <use xlink:href="#ArialMT-64" x="255.615234"/>
      <use xlink:href="#ArialMT-61" x="311.230469"/>
      <use xlink:href="#ArialMT-79" x="366.845703"/>
     </g>
    </g>
    <g id="line2d_54">
     <path d="M 117 153.212188 
L 127 153.212188 
L 137 153.212188 
" style="fill: none; stroke: #9467bd; stroke-width: 1.5; stroke-linecap: round"/>
    </g>
    <g id="text_30">
     <!-- Friday -->
     <g style="fill: #262626" transform="translate(145 156.712188) scale(0.1 -0.1)">
      <defs>
       <path id="ArialMT-46" d="M 525 0 
L 525 4581 
L 3616 4581 
L 3616 4041 
L 1131 4041 
L 1131 2622 
L 3281 2622 
L 3281 2081 
L 1131 2081 
L 1131 0 
L 525 0 
z
" transform="scale(0.015625)"/>
      </defs>
      <use xlink:href="#ArialMT-46"/>
      <use xlink:href="#ArialMT-72" x="61.083984"/>
      <use xlink:href="#ArialMT-69" x="94.384766"/>
      <use xlink:href="#ArialMT-64" x="116.601562"/>
      <use xlink:href="#ArialMT-61" x="172.216797"/>
      <use xlink:href="#ArialMT-79" x="227.832031"/>
     </g>
    </g>
    <g id="line2d_55">
     <path d="M 117 167.596563 
L 127 167.596563 
L 137 167.596563 
" style="fill: none; stroke: #8c564b; stroke-width: 1.5; stroke-linecap: round"/>
    </g>
    <g id="text_31">
     <!-- Saturday -->
     <g style="fill: #262626" transform="translate(145 171.096563) scale(0.1 -0.1)">
      <use xlink:href="#ArialMT-53"/>
      <use xlink:href="#ArialMT-61" x="66.699219"/>
      <use xlink:href="#ArialMT-74" x="122.314453"/>
      <use xlink:href="#ArialMT-75" x="150.097656"/>
      <use xlink:href="#ArialMT-72" x="205.712891"/>
      <use xlink:href="#ArialMT-64" x="239.013672"/>
      <use xlink:href="#ArialMT-61" x="294.628906"/>
      <use xlink:href="#ArialMT-79" x="350.244141"/>
     </g>
    </g>
    <g id="line2d_56">
     <path d="M 117 181.980938 
L 127 181.980938 
L 137 181.980938 
" style="fill: none; stroke: #e377c2; stroke-width: 1.5; stroke-linecap: round"/>
    </g>
    <g id="text_32">
     <!-- Sunday -->
     <g style="fill: #262626" transform="translate(145 185.480938) scale(0.1 -0.1)">
      <use xlink:href="#ArialMT-53"/>
      <use xlink:href="#ArialMT-75" x="66.699219"/>
      <use xlink:href="#ArialMT-6e" x="122.314453"/>
      <use xlink:href="#ArialMT-64" x="177.929688"/>
      <use xlink:href="#ArialMT-61" x="233.544922"/>
      <use xlink:href="#ArialMT-79" x="289.160156"/>
     </g>
    </g>
   </g>
  </g>
 </g>
 <defs>
  <clipPath id="pfd133c4a60">
   <rect x="108" y="69.12" width="669.6" height="443.52"/>
  </clipPath>
 </defs>
</svg>
